<svg width="32" height="32" viewBox="0 0 32 32" fill="none" xmlns="http://www.w3.org/2000/svg">
<path d="M25.4023 12.7592C26.0591 11.1019 27.0972 9.46131 28.4873 7.88221C28.9297 7.37977 28.9858 6.66247 28.627 6.09753C28.3506 5.66296 27.8857 5.41541 27.3936 5.41541C27.2549 5.41541 27.1138 5.43494 26.9746 5.47547C24.0283 6.33631 17.1558 9.39392 16.9712 19.1674C16.8999 22.9413 19.6601 26.1835 23.2544 26.5487C25.2354 26.747 27.2173 26.1034 28.686 24.7758C30.1567 23.4467 31.0005 21.5492 31.0005 19.5692C31.0005 16.266 28.6558 13.3773 25.4023 12.7592ZM27.3452 23.2919C26.4111 24.1361 25.2354 24.5858 23.9888 24.5858C23.8125 24.5858 23.6348 24.577 23.4565 24.5585C20.8896 24.2982 18.9194 21.9467 18.9712 19.2055C19.0986 12.4428 22.7602 9.39833 25.7925 8.0365C24.833 9.33435 24.0791 10.6693 23.543 12.0223C23.334 12.5492 23.3686 13.1381 23.6377 13.6381C23.9194 14.1625 24.4219 14.5345 25.0151 14.6591C27.3247 15.142 29.0005 17.2074 29.0005 19.5692C29.0005 20.9843 28.397 22.3412 27.3452 23.2919Z" fill="#B79B6F"/>
<path d="M12.6563 6.09657C12.3799 5.662 11.9151 5.41444 11.4229 5.41444C11.2842 5.41444 11.1436 5.43397 11.0039 5.4745C8.05762 6.33534 1.18555 9.39296 1.00098 19.1664C0.930675 22.9403 3.69043 26.1825 7.28516 26.5477C9.26856 26.7494 11.2471 26.1029 12.7158 24.7748C14.1865 23.4457 15.0303 21.5482 15.0303 19.5682C15.0303 16.265 12.6855 13.3764 9.43261 12.7582C10.0898 11.0995 11.1279 9.45887 12.5176 7.88075C12.96 7.37782 13.0156 6.66102 12.6563 6.09657ZM7.57326 12.0204C7.36428 12.5473 7.39846 13.1361 7.66701 13.6361C7.94924 14.161 8.45119 14.5331 9.04494 14.6581C11.3545 15.141 13.0303 17.2064 13.0303 19.5682C13.0303 20.9838 12.4268 22.3402 11.375 23.2909C10.4414 24.1351 9.26564 24.5849 8.01857 24.5849C7.84279 24.5849 7.66505 24.5761 7.48634 24.5575C4.91993 24.2973 2.94923 21.9457 3.00099 19.2045C3.12794 12.4413 6.79005 9.39736 9.82228 8.03554C8.86329 9.33241 8.11036 10.6674 7.57326 12.0204Z" fill="#B79B6F"/>
</svg>
