<svg width="16" height="16" viewBox="0 0 16 16" fill="none" xmlns="http://www.w3.org/2000/svg">
<g clip-path="url(#clip0_210_2913)">
<path d="M10.0333 3.33366C10.6845 3.4607 11.2829 3.77916 11.752 4.24828C12.2211 4.7174 12.5396 5.31583 12.6666 5.96699M10.0333 0.666992C11.3862 0.817283 12.6477 1.42311 13.6108 2.385C14.5739 3.34689 15.1813 4.60766 15.3333 5.96032M14.6666 11.2803V13.2803C14.6674 13.466 14.6294 13.6498 14.555 13.8199C14.4806 13.99 14.3715 14.1427 14.2347 14.2682C14.0979 14.3938 13.9364 14.4893 13.7605 14.5488C13.5846 14.6083 13.3982 14.6304 13.2133 14.6137C11.1619 14.3908 9.19131 13.6898 7.45998 12.567C5.84919 11.5434 4.48353 10.1778 3.45998 8.56699C2.33329 6.82779 1.63214 4.84765 1.41331 2.78699C1.39665 2.60264 1.41856 2.41683 1.47764 2.24141C1.53673 2.06598 1.63169 1.90478 1.75649 1.76807C1.88128 1.63136 2.03318 1.52213 2.2025 1.44734C2.37183 1.37255 2.55487 1.33383 2.73998 1.33366H4.73998C5.06351 1.33047 5.37717 1.44504 5.62248 1.65601C5.8678 1.86698 6.02803 2.15996 6.07331 2.48033C6.15772 3.12037 6.31428 3.74881 6.53998 4.35366C6.62967 4.59227 6.64908 4.8516 6.59591 5.10091C6.54274 5.35022 6.41922 5.57907 6.23998 5.76032L5.39331 6.60699C6.34235 8.27602 7.72428 9.65795 9.39331 10.607L10.24 9.76032C10.4212 9.58108 10.6501 9.45756 10.8994 9.40439C11.1487 9.35122 11.408 9.37063 11.6466 9.46032C12.2515 9.68602 12.8799 9.84258 13.52 9.92699C13.8438 9.97268 14.1396 10.1358 14.351 10.3853C14.5624 10.6348 14.6748 10.9534 14.6666 11.2803Z" stroke="white" stroke-width="1.5" stroke-linecap="round" stroke-linejoin="round"/>
</g>
<defs>
<clipPath id="clip0_210_2913">
<rect width="16" height="16" fill="white"/>
</clipPath>
</defs>
</svg>
