<svg width="16" height="16" viewBox="0 0 16 16" fill="none" xmlns="http://www.w3.org/2000/svg">
<g clip-path="url(#clip0_210_866)">
<path d="M15 7.97021H1C0.448656 7.97021 0 8.41887 0 8.97021C0 9.52156 0.448656 9.97021 1 9.97021H15C15.5513 9.97021 16 9.52156 16 8.97021C16 8.41887 15.5513 7.97021 15 7.97021ZM15 9.30353H1C0.816656 9.30353 0.666656 9.15418 0.666656 8.97018C0.666656 8.78618 0.816656 8.63684 1 8.63684H15C15.1833 8.63684 15.3333 8.78618 15.3333 8.97018C15.3333 9.15418 15.1833 9.30353 15 9.30353Z" fill="white"/>
<path d="M15.092 9.31644C14.9113 9.26644 14.73 9.36844 14.68 9.54579L13.7613 12.7618C13.558 13.4731 12.8987 13.9704 12.1587 13.9704H3.84199C3.10199 13.9704 2.44333 13.4731 2.23933 12.7618L1.32065 9.54575C1.27065 9.36841 1.08865 9.26641 0.908647 9.31641C0.731303 9.36707 0.629303 9.55107 0.67999 9.72841L1.59865 12.9444C1.8833 13.9411 2.8053 14.6371 3.84199 14.6371H12.158C13.1946 14.6371 14.1173 13.9411 14.402 12.9444L15.3206 9.72841C15.3713 9.55175 15.2693 9.3671 15.092 9.31644Z" fill="white"/>
<path d="M3.84246 12.6379C3.69446 12.6379 3.56312 12.5379 3.52181 12.3959L3.08915 10.8799C3.03915 10.7033 2.85581 10.5999 2.67715 10.6506C2.50049 10.7012 2.39781 10.8852 2.44849 11.0626L2.88115 12.5786C3.00249 13.0059 3.39849 13.3039 3.84249 13.3039C4.02649 13.3039 4.17584 13.1553 4.17584 12.9713C4.17581 12.7873 4.02646 12.6379 3.84246 12.6379Z" fill="white"/>
<path d="M4.48198 14.0048C4.31733 13.9242 4.11798 13.9888 4.03464 14.1542L3.36798 15.4875C3.28598 15.6522 3.35264 15.8522 3.51733 15.9348C3.56598 15.9588 3.61667 15.9702 3.66667 15.9702C3.78867 15.9702 3.90602 15.9028 3.96467 15.7855L4.63133 14.4522C4.71333 14.2875 4.64664 14.0875 4.48198 14.0048Z" fill="white"/>
<path d="M12.6324 15.4886L11.9657 14.1552C11.8831 13.9899 11.6831 13.9239 11.5184 14.0059C11.3537 14.0885 11.287 14.2885 11.369 14.4532L12.0357 15.7866C12.0944 15.9032 12.2117 15.9706 12.3337 15.9706C12.3837 15.9706 12.4344 15.9592 12.483 15.9359C12.6477 15.8532 12.7144 15.6532 12.6324 15.4886Z" fill="white"/>
<path d="M13.39 0.0297852C13.05 0.0297852 12.73 0.162441 12.4893 0.403129L11.4313 1.46113C11.3013 1.59113 11.3013 1.80247 11.4313 1.93247C11.5613 2.06247 11.7727 2.06247 11.9027 1.93247L12.9606 0.875129C13.0746 0.760473 13.2273 0.697129 13.3933 0.697129C13.728 0.697129 14 0.969129 14 1.30379V8.30379C14 8.48779 14.1493 8.63713 14.3333 8.63713C14.5173 8.63713 14.6666 8.48779 14.6673 8.30313V1.30313C14.6673 0.601129 14.0966 0.0297852 13.39 0.0297852Z" fill="white"/>
<path d="M12.237 1.79518L11.5703 1.12852C11.4937 1.05186 11.3877 1.01652 11.2803 1.03518L9.61367 1.30852C9.49101 1.32786 9.39033 1.41452 9.35101 1.53252C9.3117 1.65052 9.34167 1.78052 9.42836 1.86918L11.4284 3.92917C11.491 3.99517 11.5784 4.03052 11.667 4.03052C11.6984 4.03052 11.7304 4.02586 11.7624 4.01718C11.881 3.98252 11.971 3.88452 11.995 3.76318L12.3284 2.09652C12.3503 1.98717 12.3157 1.87383 12.237 1.79518ZM11.4643 3.00983L10.3503 1.86252L11.219 1.72052L11.6383 2.13986L11.4643 3.00983Z" fill="white"/>
<path d="M7.90152 4.0682C7.77152 3.9382 7.56017 3.9382 7.43017 4.0682L6.76352 4.73486C6.63352 4.86486 6.63352 5.0762 6.76352 5.2062C6.82886 5.27086 6.91417 5.30355 6.99952 5.30355C7.08486 5.30355 7.17017 5.27089 7.23486 5.2062L7.90152 4.53955C8.03152 4.40952 8.03152 4.1982 7.90152 4.0682Z" fill="white"/>
<path d="M9.23535 5.4017C9.10535 5.2717 8.894 5.2717 8.764 5.4017L8.09735 6.06836C7.96735 6.19836 7.96735 6.4097 8.09735 6.5397C8.16269 6.60436 8.248 6.63704 8.33335 6.63704C8.41869 6.63704 8.504 6.60439 8.56869 6.5397L9.23535 5.87304C9.36535 5.74304 9.36535 5.5317 9.23535 5.4017Z" fill="white"/>
<path d="M9.90152 3.4017C9.77152 3.2717 9.56017 3.2717 9.43017 3.4017L8.76352 4.06836C8.63352 4.19836 8.63352 4.4097 8.76352 4.5397C8.82886 4.60436 8.91417 4.63704 8.99952 4.63704C9.08486 4.63704 9.17017 4.60439 9.23486 4.5397L9.90152 3.87304C10.0315 3.74304 10.0315 3.5317 9.90152 3.4017Z" fill="white"/>
</g>
<defs>
<clipPath id="clip0_210_866">
<rect width="16" height="16" fill="white"/>
</clipPath>
</defs>
</svg>
