<svg width="16" height="16" viewBox="0 0 16 16" fill="none" xmlns="http://www.w3.org/2000/svg">
<g clip-path="url(#clip0_210_901)">
<path d="M3.66428 5.01907L1.53094 4.16574C1.36659 4.10018 1.18042 4.1204 1.03398 4.21972C0.887539 4.31904 0.799891 4.48453 0.800009 4.66147V14.7849L0.0733423 15.5497C-0.000133975 15.627 -0.0204976 15.7407 0.0215667 15.8387C0.063631 15.9367 0.160034 16.0002 0.266676 16.0001H15.7333C15.84 16.0002 15.9364 15.9367 15.9785 15.8387C16.0205 15.7407 16.0002 15.627 15.9267 15.5497L15.2 14.7849V4.66147C15.2001 4.48453 15.1125 4.31904 14.966 4.21972C14.8196 4.1204 14.6334 4.10018 14.4691 4.16574L12.3357 5.01907C12.1323 5.09926 11.999 5.29613 12 5.51481V11.4164L10.9333 10.2935V4.13347L15.8915 0.480138C15.9942 0.388284 16.0101 0.233249 15.928 0.122519C15.8459 0.0117883 15.693 -0.0181449 15.5752 0.0534715L10.5792 3.73347H5.42081L0.424809 0.0534715C0.306594 -0.0223712 0.149816 0.00648072 0.0663457 0.11944C-0.0171242 0.232398 0.001331 0.390738 0.108542 0.481472L5.06668 4.13481V10.2935L4.00001 11.4161V5.51481C4.00105 5.29613 3.86772 5.09926 3.66428 5.01907ZM1.33334 4.66094L3.46668 5.51427V8.63427L3.08081 8.82707C2.949 8.89291 2.89551 9.05313 2.96134 9.18494C3.02717 9.31675 3.1874 9.37024 3.31921 9.30441L3.46668 9.23161V11.9783L1.33334 14.2236V4.66094ZM2.35921 15.4668L5.90588 11.7335H10.0944L13.6411 15.4668H2.35921ZM14.3765 15.4668L10.4032 11.2831C10.3526 11.2298 10.2823 11.1998 10.2088 11.2001H5.79121C5.71812 11.2001 5.64823 11.2301 5.59788 11.2831L1.62348 15.4668H0.887742L5.44774 10.6668H10.552L15.112 15.4668H14.3765ZM9.06668 8.00014H8.80001C8.65273 8.00014 8.53334 8.11953 8.53334 8.26681C8.53334 8.41408 8.65273 8.53347 8.80001 8.53347H9.06668V10.1335H6.93334V5.86681H9.06668V8.00014ZM12.5333 5.51454L14.6667 4.66121V9.16787L14.5192 9.09401C14.3874 9.02817 14.2272 9.08166 14.1613 9.21347C14.0955 9.34528 14.149 9.50551 14.2808 9.57134L14.6667 9.76494V14.2236L12.5333 11.978V5.51454ZM5.60001 4.26681H10.4V10.1335H9.60001V5.86681C9.60001 5.57225 9.36123 5.33347 9.06668 5.33347H6.93334C6.63879 5.33347 6.40001 5.57225 6.40001 5.86681V10.1335H5.60001V4.26681Z" fill="white"/>
<path d="M8.00026 2.13333C8.73546 2.13333 9.3336 1.65493 9.3336 1.06667C9.3336 0.4784 8.73546 0 8.00026 0C7.26506 0 6.66693 0.4784 6.66693 1.06667C6.66693 1.65493 7.26506 2.13333 8.00026 2.13333ZM8.00026 0.533333C8.43386 0.533333 8.80026 0.7776 8.80026 1.06667C8.80026 1.35573 8.43386 1.6 8.00026 1.6C7.56666 1.6 7.20026 1.35573 7.20026 1.06667C7.20026 0.7776 7.56666 0.533333 8.00026 0.533333Z" fill="white"/>
</g>
<defs>
<clipPath id="clip0_210_901">
<rect width="16" height="16" fill="white"/>
</clipPath>
</defs>
</svg>
