<svg width="17" height="17" viewBox="0 0 17 17" fill="none" xmlns="http://www.w3.org/2000/svg">
<path d="M13.5839 2.10595C12.2259 0.747902 10.4203 0 8.49972 0C6.57918 0 4.77353 0.747902 3.41552 2.10595C2.05747 3.46402 1.30957 5.26961 1.30957 7.19012C1.30957 11.0753 4.9831 14.3068 6.95667 16.0429C7.23093 16.2841 7.46777 16.4925 7.65646 16.6687C7.89287 16.8895 8.19631 17 8.49969 17C8.80313 17 9.10651 16.8895 9.34295 16.6687C9.53164 16.4924 9.76848 16.2841 10.0427 16.0429C12.0163 14.3068 15.6898 11.0753 15.6898 7.19012C15.6898 5.26961 14.9419 3.46402 13.5839 2.10595ZM9.38498 15.2952C9.10472 15.5417 8.8627 15.7546 8.66315 15.941C8.57147 16.0266 8.4279 16.0266 8.3362 15.941C8.13668 15.7546 7.89463 15.5417 7.61436 15.2951C5.75896 13.663 2.30533 10.625 2.30533 7.19015C2.30533 3.77461 5.08408 0.995863 8.49965 0.995863C11.9152 0.995863 14.6939 3.77461 14.6939 7.19015C14.694 10.625 11.2404 13.663 9.38498 15.2952Z" fill="#B79B6F"/>
<path d="M8.49966 3.75C6.75248 3.75 5.33105 5.17139 5.33105 6.91857C5.33105 8.66576 6.75248 10.0871 8.49966 10.0871C10.2468 10.0871 11.6682 8.66576 11.6682 6.91857C11.6682 5.17139 10.2468 3.75 8.49966 3.75ZM8.49966 9.09129C7.30159 9.09129 6.32688 8.11658 6.32688 6.91854C6.32688 5.72051 7.30159 4.74579 8.49966 4.74579C9.69773 4.74579 10.6724 5.72051 10.6724 6.91854C10.6724 8.11658 9.69773 9.09129 8.49966 9.09129Z" fill="#B79B6F"/>
</svg>
