<svg width="16" height="16" viewBox="0 0 16 16" fill="none" xmlns="http://www.w3.org/2000/svg">
<g clip-path="url(#clip0_210_1593)">
<path d="M15.7821 7.47433L11.0208 2.71299C10.7303 2.42249 10.2591 2.42249 9.96863 2.71299C9.67807 3.00355 9.67807 3.47457 9.96863 3.76513L13.4599 7.25644H0.743959C0.333115 7.25644 0 7.58956 0 8.0004C0 8.41118 0.333115 8.74436 0.743959 8.74436H13.4599L9.96875 12.2357C9.67819 12.5262 9.67819 12.9972 9.96875 13.2878C10.114 13.433 10.3044 13.5057 10.4948 13.5057C10.6852 13.5057 10.8756 13.433 11.0209 13.2878L15.7821 8.52647C16.0727 8.23591 16.0727 7.76489 15.7821 7.47433Z" fill="black"/>
</g>
<defs>
<clipPath id="clip0_210_1593">
<rect width="16" height="16" fill="white"/>
</clipPath>
</defs>
</svg>
