<svg width="28" height="28" viewBox="0 0 28 28" fill="none" xmlns="http://www.w3.org/2000/svg">
<path d="M14 22.1662C13.7683 22.1676 13.5414 22.0999 13.3483 21.9718C13.1552 21.8437 13.0046 21.661 12.9157 21.4469C12.8269 21.2329 12.8037 20.9973 12.8493 20.7701C12.8949 20.5429 13.0071 20.3344 13.1717 20.1712L19.355 13.9995L13.1717 7.82788C12.9805 7.60469 12.8807 7.3176 12.892 7.02398C12.9033 6.73036 13.0251 6.45183 13.2328 6.24405C13.4406 6.03628 13.7191 5.91456 14.0128 5.90321C14.3064 5.89187 14.5935 5.99175 14.8167 6.18288L21.8167 13.1829C22.034 13.4015 22.1559 13.6972 22.1559 14.0054C22.1559 14.3136 22.034 14.6093 21.8167 14.8279L14.8167 21.8279C14.5994 22.0434 14.3061 22.1649 14 22.1662Z" fill="black"/>
<path d="M6.99999 22.1662C6.76826 22.1676 6.54138 22.0999 6.34827 21.9718C6.15517 21.8437 6.00459 21.661 5.91572 21.447C5.82686 21.2329 5.80375 20.9973 5.84933 20.7701C5.89491 20.5429 6.00712 20.3344 6.17166 20.1712L12.355 13.9996L6.17166 7.8279C5.95197 7.60821 5.82855 7.31025 5.82855 6.99957C5.82855 6.68888 5.95197 6.39092 6.17166 6.17123C6.39134 5.95154 6.6893 5.82813 6.99999 5.82812C7.31068 5.82812 7.60864 5.95154 7.82832 6.17123L14.8283 13.1712C15.0456 13.3898 15.1676 13.6855 15.1676 13.9937C15.1676 14.302 15.0456 14.5976 14.8283 14.8162L7.82832 21.8162C7.72027 21.9265 7.59142 22.0142 7.44923 22.0742C7.30705 22.1343 7.15435 22.1656 6.99999 22.1662Z" fill="black"/>
</svg>
