<svg width="185" height="75" viewBox="0 0 185 75" fill="none" xmlns="http://www.w3.org/2000/svg">
<path d="M89.3828 32.9998V18.9998H92.6028L96.8828 27.7398L101.123 18.9998H104.343V32.9998H101.643V23.5998L97.9428 31.0398H95.8028L92.0828 23.5998V32.9998H89.3828ZM113.558 33.2398C112.198 33.2398 110.998 32.9331 109.958 32.3198C108.918 31.7065 108.105 30.8598 107.518 29.7798C106.931 28.6865 106.638 27.4265 106.638 25.9998C106.638 24.5731 106.931 23.3198 107.518 22.2398C108.105 21.1465 108.918 20.2931 109.958 19.6798C110.998 19.0665 112.198 18.7598 113.558 18.7598C114.931 18.7598 116.138 19.0665 117.178 19.6798C118.218 20.2931 119.025 21.1465 119.598 22.2398C120.185 23.3198 120.478 24.5731 120.478 25.9998C120.478 27.4265 120.185 28.6865 119.598 29.7798C119.025 30.8598 118.218 31.7065 117.178 32.3198C116.138 32.9331 114.931 33.2398 113.558 33.2398ZM113.558 30.8198C114.411 30.8198 115.145 30.6265 115.758 30.2398C116.385 29.8398 116.871 29.2798 117.218 28.5598C117.565 27.8398 117.738 26.9865 117.738 25.9998C117.738 24.9998 117.565 24.1465 117.218 23.4398C116.871 22.7198 116.385 22.1665 115.758 21.7798C115.145 21.3931 114.411 21.1998 113.558 21.1998C112.718 21.1998 111.985 21.3931 111.358 21.7798C110.731 22.1665 110.245 22.7198 109.898 23.4398C109.551 24.1465 109.378 24.9998 109.378 25.9998C109.378 26.9865 109.551 27.8398 109.898 28.5598C110.245 29.2798 110.731 29.8398 111.358 30.2398C111.985 30.6265 112.718 30.8198 113.558 30.8198ZM122.781 32.9998V18.9998H127.461C129.088 18.9998 130.428 19.2931 131.481 19.8798C132.548 20.4531 133.335 21.2665 133.841 22.3198C134.361 23.3598 134.621 24.5865 134.621 25.9998C134.621 27.4131 134.361 28.6465 133.841 29.6998C133.335 30.7398 132.555 31.5531 131.501 32.1398C130.448 32.7131 129.101 32.9998 127.461 32.9998H122.781ZM125.481 30.6798H127.321C128.468 30.6798 129.368 30.4931 130.021 30.1198C130.688 29.7465 131.161 29.2131 131.441 28.5198C131.721 27.8131 131.861 26.9731 131.861 25.9998C131.861 25.0131 131.721 24.1731 131.441 23.4798C131.161 22.7731 130.688 22.2331 130.021 21.8598C129.368 21.4865 128.468 21.2998 127.321 21.2998H125.481V30.6798ZM136.922 32.9998V18.9998H146.122V21.1798H139.622V24.8398H145.522V26.9398H139.622V30.8198H146.122V32.9998H136.922ZM148.582 32.9998V18.9998H153.802C154.936 18.9998 155.869 19.1931 156.602 19.5798C157.336 19.9665 157.882 20.4865 158.242 21.1398C158.602 21.7798 158.782 22.4931 158.782 23.2798C158.782 24.0265 158.609 24.7265 158.262 25.3798C157.916 26.0198 157.369 26.5398 156.622 26.9398C155.889 27.3265 154.942 27.5198 153.782 27.5198H151.282V32.9998H148.582ZM155.842 32.9998L152.962 26.8398H155.882L158.922 32.9998H155.842ZM151.282 25.5598H153.642C154.456 25.5598 155.056 25.3598 155.442 24.9598C155.829 24.5598 156.022 24.0331 156.022 23.3798C156.022 22.7265 155.829 22.2131 155.442 21.8398C155.069 21.4531 154.469 21.2598 153.642 21.2598H151.282V25.5598ZM161.199 32.9998V18.9998H163.899L170.339 28.6598V18.9998H173.039V32.9998H170.339L163.899 23.3598V32.9998H161.199Z" fill="black"/>
<path d="M88.2344 55.0007L90.2904 49.4007H91.1624L93.2184 55.0007H92.3624L90.7224 50.3607L89.0744 55.0007H88.2344ZM89.1624 53.6167L89.3864 52.9767H92.0184L92.2424 53.6167H89.1624ZM97.5679 55.0007V49.4007H99.4639C99.9066 49.4007 100.269 49.4754 100.552 49.6247C100.834 49.774 101.042 49.974 101.176 50.2247C101.314 50.47 101.384 50.75 101.384 51.0647C101.384 51.3634 101.314 51.6407 101.176 51.8967C101.042 52.1474 100.832 52.35 100.544 52.5047C100.256 52.654 99.8879 52.7287 99.4399 52.7287H98.3679V55.0007H97.5679ZM100.512 55.0007L99.3039 52.5127H100.184L101.44 55.0007H100.512ZM98.3679 52.1207H99.4159C99.8106 52.1207 100.098 52.0247 100.28 51.8327C100.466 51.6354 100.56 51.3847 100.56 51.0807C100.56 50.7714 100.469 50.526 100.288 50.3447C100.106 50.1634 99.8132 50.0727 99.4079 50.0727H98.3679V52.1207ZM108.362 55.0967C107.829 55.0967 107.367 54.9767 106.978 54.7367C106.589 54.4914 106.287 54.1527 106.074 53.7207C105.866 53.2834 105.762 52.7767 105.762 52.2007C105.762 51.63 105.866 51.126 106.074 50.6887C106.287 50.2514 106.589 49.9127 106.978 49.6727C107.367 49.4274 107.829 49.3047 108.362 49.3047C109.007 49.3047 109.533 49.462 109.938 49.7767C110.343 50.0914 110.599 50.534 110.706 51.1047H109.842C109.757 50.774 109.591 50.51 109.346 50.3127C109.101 50.1154 108.77 50.0167 108.354 50.0167C107.991 50.0167 107.677 50.1047 107.41 50.2807C107.143 50.4567 106.938 50.7074 106.794 51.0327C106.65 51.358 106.578 51.7474 106.578 52.2007C106.578 52.654 106.65 53.046 106.794 53.3767C106.938 53.702 107.143 53.9527 107.41 54.1287C107.677 54.2994 107.991 54.3847 108.354 54.3847C108.77 54.3847 109.101 54.2914 109.346 54.1047C109.591 53.9127 109.757 53.654 109.842 53.3287H110.706C110.599 53.8834 110.343 54.318 109.938 54.6327C109.533 54.942 109.007 55.0967 108.362 55.0967ZM118.785 55.0007V49.4007H119.585V55.0007H118.785ZM115.225 55.0007V49.4007H116.025V55.0007H115.225ZM115.889 52.4727V51.8167H118.961V52.4727H115.889ZM124.323 55.0007V49.4007H125.123V55.0007H124.323ZM131.154 55.0007V50.0567H129.498V49.4007H133.618V50.0567H131.954V55.0007H131.154ZM137.988 55.0007V49.4007H141.524V50.0567H138.788V51.8487H141.284V52.4887H138.788V54.3447H141.524V55.0007H137.988ZM148.501 55.0967C147.968 55.0967 147.507 54.9767 147.117 54.7367C146.728 54.4914 146.427 54.1527 146.213 53.7207C146.005 53.2834 145.901 52.7767 145.901 52.2007C145.901 51.63 146.005 51.126 146.213 50.6887C146.427 50.2514 146.728 49.9127 147.117 49.6727C147.507 49.4274 147.968 49.3047 148.501 49.3047C149.147 49.3047 149.672 49.462 150.077 49.7767C150.483 50.0914 150.739 50.534 150.845 51.1047H149.981C149.896 50.774 149.731 50.51 149.485 50.3127C149.24 50.1154 148.909 50.0167 148.493 50.0167C148.131 50.0167 147.816 50.1047 147.549 50.2807C147.283 50.4567 147.077 50.7074 146.933 51.0327C146.789 51.358 146.717 51.7474 146.717 52.2007C146.717 52.654 146.789 53.046 146.933 53.3767C147.077 53.702 147.283 53.9527 147.549 54.1287C147.816 54.2994 148.131 54.3847 148.493 54.3847C148.909 54.3847 149.24 54.2914 149.485 54.1047C149.731 53.9127 149.896 53.654 149.981 53.3287H150.845C150.739 53.8834 150.483 54.318 150.077 54.6327C149.672 54.942 149.147 55.0967 148.501 55.0967ZM156.55 55.0007V50.0567H154.894V49.4007H159.014V50.0567H157.35V55.0007H156.55ZM165.416 55.0967C165.026 55.0967 164.672 55.0194 164.352 54.8647C164.032 54.7047 163.776 54.4647 163.584 54.1447C163.397 53.8194 163.304 53.406 163.304 52.9047V49.4007H164.104V52.9127C164.104 53.2487 164.157 53.526 164.264 53.7447C164.376 53.958 164.533 54.118 164.736 54.2247C164.938 54.326 165.17 54.3767 165.432 54.3767C165.704 54.3767 165.938 54.326 166.136 54.2247C166.333 54.118 166.485 53.958 166.592 53.7447C166.704 53.526 166.76 53.2487 166.76 52.9127V49.4007H167.56V52.9047C167.56 53.406 167.464 53.8194 167.272 54.1447C167.08 54.4647 166.821 54.7047 166.496 54.8647C166.176 55.0194 165.816 55.0967 165.416 55.0967ZM172.208 55.0007V49.4007H174.104C174.547 49.4007 174.91 49.4754 175.192 49.6247C175.475 49.774 175.683 49.974 175.816 50.2247C175.955 50.47 176.024 50.75 176.024 51.0647C176.024 51.3634 175.955 51.6407 175.816 51.8967C175.683 52.1474 175.472 52.35 175.184 52.5047C174.896 52.654 174.528 52.7287 174.08 52.7287H173.008V55.0007H172.208ZM175.152 55.0007L173.944 52.5127H174.824L176.08 55.0007H175.152ZM173.008 52.1207H174.056C174.451 52.1207 174.739 52.0247 174.92 51.8327C175.107 51.6354 175.2 51.3847 175.2 51.0807C175.2 50.7714 175.11 50.526 174.928 50.3447C174.747 50.1634 174.454 50.0727 174.048 50.0727H173.008V52.1207ZM180.619 55.0007V49.4007H184.155V50.0567H181.419V51.8487H183.915V52.4887H181.419V54.3447H184.155V55.0007H180.619Z" fill="black"/>
<path d="M1 73.5V26.2961H48.2039V73.5H1ZM1 73.5L21.1311 53.3689M21.1311 53.3689V20.7427L44.0388 2L66.9466 20.7427V53.3689H21.1311Z" stroke="black" stroke-width="2"/>
</svg>
