<svg width="146" height="69" viewBox="0 0 146 69" fill="none" xmlns="http://www.w3.org/2000/svg">
<path fill-rule="evenodd" clip-rule="evenodd" d="M33.5988 38.2729C34.2488 37.4457 34.8 36.5538 35.2459 35.6152V43.6535H38.0168V29.5718H44.5881L57.7311 43.6535H62.0464L48.4264 29.5718H53.5066V26.7555H45.7024L35.2459 15.9445V26.7555H25.3433V29.5718H35.2459L33.2454 29.5719C33.2454 31.9738 32.4386 34.3062 30.9544 36.1948C29.4703 38.0833 27.3947 39.4186 25.0609 39.9865C22.727 40.5543 20.27 40.3217 18.0841 39.3261C15.8982 38.3305 14.1101 36.6294 13.0066 34.4959C11.9031 32.3624 11.5483 29.9201 11.9989 27.5608C12.4496 25.2015 13.6797 23.062 15.4919 21.4854C17.304 19.9088 19.5932 18.9867 21.9922 18.8668C24.3911 18.747 26.7609 19.4364 28.7211 20.8245L30.6647 18.0797C28.0894 16.2561 24.9761 15.3503 21.8244 15.5078C18.6726 15.6652 15.6651 16.8768 13.2844 18.948C10.9036 21.0193 9.28749 23.8302 8.69541 26.9298C8.10333 30.0294 8.56955 33.2381 10.0193 36.041C11.469 38.844 13.8182 41.0787 16.69 42.3868C19.5618 43.6948 22.7897 44.0004 25.8559 43.2544C28.9221 42.5083 31.6489 40.754 33.5988 38.2729ZM38.0168 26.7555H41.9596L38.0168 22.5311V26.7555Z" fill="#666666"/>
<path d="M8.67969 53.8366L10.7357 48.2366H11.6077L13.6637 53.8366H12.8077L11.1677 49.1966L9.51969 53.8366H8.67969ZM9.60769 52.4526L9.83169 51.8126H12.4637L12.6877 52.4526H9.60769ZM19.6932 53.8366V48.2366H21.5892C22.0318 48.2366 22.3945 48.3113 22.6772 48.4606C22.9598 48.6099 23.1678 48.8099 23.3012 49.0606C23.4398 49.3059 23.5092 49.5859 23.5092 49.9006C23.5092 50.1993 23.4398 50.4766 23.3012 50.7326C23.1678 50.9833 22.9572 51.1859 22.6692 51.3406C22.3812 51.4899 22.0132 51.5646 21.5652 51.5646H20.4932V53.8366H19.6932ZM22.6372 53.8366L21.4292 51.3486H22.3092L23.5652 53.8366H22.6372ZM20.4932 50.9566H21.5412C21.9358 50.9566 22.2238 50.8606 22.4052 50.6686C22.5918 50.4713 22.6852 50.2206 22.6852 49.9166C22.6852 49.6073 22.5945 49.3619 22.4132 49.1806C22.2318 48.9993 21.9385 48.9086 21.5332 48.9086H20.4932V50.9566ZM32.1678 53.9326C31.6345 53.9326 31.1731 53.8126 30.7838 53.5726C30.3945 53.3273 30.0931 52.9886 29.8798 52.5566C29.6718 52.1193 29.5678 51.6126 29.5678 51.0366C29.5678 50.4659 29.6718 49.9619 29.8798 49.5246C30.0931 49.0873 30.3945 48.7486 30.7838 48.5086C31.1731 48.2633 31.6345 48.1406 32.1678 48.1406C32.8131 48.1406 33.3385 48.2979 33.7438 48.6126C34.1491 48.9273 34.4051 49.3699 34.5118 49.9406H33.6478C33.5625 49.6099 33.3971 49.3459 33.1518 49.1486C32.9065 48.9513 32.5758 48.8526 32.1598 48.8526C31.7971 48.8526 31.4825 48.9406 31.2158 49.1166C30.9491 49.2926 30.7438 49.5433 30.5998 49.8686C30.4558 50.1939 30.3838 50.5833 30.3838 51.0366C30.3838 51.4899 30.4558 51.8819 30.5998 52.2126C30.7438 52.5379 30.9491 52.7886 31.2158 52.9646C31.4825 53.1353 31.7971 53.2206 32.1598 53.2206C32.5758 53.2206 32.9065 53.1273 33.1518 52.9406C33.3971 52.7486 33.5625 52.4899 33.6478 52.1646H34.5118C34.4051 52.7193 34.1491 53.1539 33.7438 53.4686C33.3385 53.7779 32.8131 53.9326 32.1678 53.9326ZM44.2704 53.8366V48.2366H45.0704V53.8366H44.2704ZM40.7104 53.8366V48.2366H41.5104V53.8366H40.7104ZM41.3744 51.3086V50.6526H44.4464V51.3086H41.3744ZM51.4885 53.8366V48.2366H52.2885V53.8366H51.4885ZM60.0001 53.8366V48.8926H58.3441V48.2366H62.4641V48.8926H60.8001V53.8366H60.0001ZM68.5135 53.8366V48.2366H72.0495V48.8926H69.3135V50.6846H71.8095V51.3246H69.3135V53.1806H72.0495V53.8366H68.5135ZM80.7069 53.9326C80.1735 53.9326 79.7122 53.8126 79.3229 53.5726C78.9335 53.3273 78.6322 52.9886 78.4189 52.5566C78.2109 52.1193 78.1069 51.6126 78.1069 51.0366C78.1069 50.4659 78.2109 49.9619 78.4189 49.5246C78.6322 49.0873 78.9335 48.7486 79.3229 48.5086C79.7122 48.2633 80.1735 48.1406 80.7069 48.1406C81.3522 48.1406 81.8775 48.2979 82.2829 48.6126C82.6882 48.9273 82.9442 49.3699 83.0509 49.9406H82.1869C82.1015 49.6099 81.9362 49.3459 81.6909 49.1486C81.4455 48.9513 81.1149 48.8526 80.6989 48.8526C80.3362 48.8526 80.0215 48.9406 79.7549 49.1166C79.4882 49.2926 79.2829 49.5433 79.1389 49.8686C78.9949 50.1939 78.9229 50.5833 78.9229 51.0366C78.9229 51.4899 78.9949 51.8819 79.1389 52.2126C79.2829 52.5379 79.4882 52.7886 79.7549 52.9646C80.0215 53.1353 80.3362 53.2206 80.6989 53.2206C81.1149 53.2206 81.4455 53.1273 81.6909 52.9406C81.9362 52.7486 82.1015 52.4899 82.1869 52.1646H83.0509C82.9442 52.7193 82.6882 53.1539 82.2829 53.4686C81.8775 53.7779 81.3522 53.9326 80.7069 53.9326ZM90.436 53.8366V48.8926H88.78V48.2366H92.9V48.8926H91.236V53.8366H90.436ZM100.982 53.9326C100.592 53.9326 100.238 53.8553 99.9174 53.7006C99.5974 53.5406 99.3414 53.3006 99.1494 52.9806C98.9628 52.6553 98.8694 52.2419 98.8694 51.7406V48.2366H99.6694V51.7486C99.6694 52.0846 99.7228 52.3619 99.8294 52.5806C99.9414 52.7939 100.099 52.9539 100.302 53.0606C100.504 53.1619 100.736 53.2126 100.998 53.2126C101.27 53.2126 101.504 53.1619 101.702 53.0606C101.899 52.9539 102.051 52.7939 102.158 52.5806C102.27 52.3619 102.326 52.0846 102.326 51.7486V48.2366H103.126V51.7406C103.126 52.2419 103.03 52.6553 102.838 52.9806C102.646 53.3006 102.387 53.5406 102.062 53.7006C101.742 53.8553 101.382 53.9326 100.982 53.9326ZM109.454 53.8366V48.2366H111.35C111.793 48.2366 112.156 48.3113 112.438 48.4606C112.721 48.6099 112.929 48.8099 113.062 49.0606C113.201 49.3059 113.27 49.5859 113.27 49.9006C113.27 50.1993 113.201 50.4766 113.062 50.7326C112.929 50.9833 112.718 51.1859 112.43 51.3406C112.142 51.4899 111.774 51.5646 111.326 51.5646H110.254V53.8366H109.454ZM112.398 53.8366L111.19 51.3486H112.07L113.326 53.8366H112.398ZM110.254 50.9566H111.302C111.697 50.9566 111.985 50.8606 112.166 50.6686C112.353 50.4713 112.446 50.2206 112.446 49.9166C112.446 49.6073 112.356 49.3619 112.174 49.1806C111.993 48.9993 111.7 48.9086 111.294 48.9086H110.254V50.9566ZM119.545 53.8366V48.2366H123.081V48.8926H120.345V50.6846H122.841V51.3246H120.345V53.1806H123.081V53.8366H119.545Z" fill="#666666"/>
<path d="M74.6306 29.3649H71.5506C70.9556 27.1599 69.2756 26.0749 66.5806 26.0749C64.6556 26.0749 63.1856 26.7749 62.1356 28.1399C61.1206 29.5049 60.5956 31.1499 60.5956 33.1099C60.5956 34.8949 61.1206 36.4699 62.1356 37.7999C63.1506 39.1299 64.5856 39.7949 66.3706 39.7949C69.4156 39.7949 71.2006 38.7449 71.7606 36.1199H74.8056C73.8606 40.6349 71.0956 42.4199 66.3006 42.4199C63.6056 42.4199 61.4356 41.5799 59.8606 39.8649C58.2856 38.1499 57.5156 35.8749 57.5156 33.1099C57.5156 30.3449 58.3556 28.0699 60.0356 26.2499C61.7506 24.3949 63.9556 23.4849 66.6856 23.4849C68.9256 23.4849 70.7806 24.0099 72.2156 25.0949C73.6506 26.1799 74.4556 27.5799 74.6306 29.3649ZM85.5772 23.9049V26.4949H81.9722V38.2199C81.9722 39.0599 82.2172 39.3399 83.3022 39.3399H85.4022V41.9999H81.8672C79.6272 41.9999 78.8922 40.7399 78.8922 38.5349V26.4949H75.9172V23.9049H78.8922V19.5999L81.8672 18.1299H81.9722V23.9049H85.5772ZM101.34 33.4949V23.9049H104.49V41.9999H101.515V38.0799H101.445C100.605 40.9849 98.3647 42.4199 95.5647 42.4199C90.9797 42.4199 88.6697 39.8649 88.6697 35.8049V23.9049H91.8197V35.4899C91.8197 38.6749 93.3247 39.7949 95.9847 39.7949C99.5197 39.7949 101.34 38.0099 101.34 33.4949ZM121.877 37.7619C122.111 38.7499 122.345 39.5299 122.553 40.0759C122.761 40.6219 123.099 41.1939 123.541 41.7399V41.9999H120.863C120.525 41.5579 120.291 41.1159 120.109 40.6479C119.927 40.1799 119.771 39.5819 119.615 38.8799C119.485 38.1779 119.381 37.7359 119.329 37.5539C118.731 35.4479 117.717 34.2259 115.767 34.2259H110.853V41.9999H108.383V23.4359H116.287C120.265 23.4359 122.423 25.4379 122.423 28.4539C122.423 31.1059 121.201 32.7699 118.757 33.4459C119.667 33.6539 120.317 34.0959 120.733 34.7979C121.201 35.4999 121.591 36.4879 121.877 37.7619ZM110.853 25.5159V32.1459H116.183C118.679 32.1459 119.927 30.9239 119.927 28.4539C119.927 26.5039 118.705 25.5159 116.287 25.5159H110.853Z" fill="#666666"/>
<path fill-rule="evenodd" clip-rule="evenodd" d="M1.40815 4.22461H115.469V5.63277H1.40816L1.40815 66.1837H115.469V67.5918H1.40815L0 67.5921V4.22466L1.40815 4.22461Z" fill="#666666"/>
</svg>
