<svg width="205" height="69" viewBox="0 0 205 69" fill="none" xmlns="http://www.w3.org/2000/svg">
<path d="M1.09375 26.2139V65.7142L6.77714 60.6323V30.6029L32.8852 10.7373L59.1709 30.6029V60.6323L64.6766 65.7142V26.2139L32.8852 2.19043L1.09375 26.2139Z" stroke="black" stroke-width="2"/>
<path d="M16.5469 37.7637V54.3954L22.4078 52.5474V42.1526L32.8866 34.2988L43.543 42.1526V52.5474L49.0487 54.3954V37.7637L32.8866 26.2139L16.5469 37.7637Z" stroke="black" stroke-width="2"/>
<path d="M82.7031 31.7622L88.316 16.4289H91.6705L97.2614 31.7622H94.1261L89.9823 19.8022L85.8165 31.7622H82.7031ZM85.1807 28.2793L85.97 25.9793H93.7753L94.5427 28.2793H85.1807ZM99.2782 31.7622V16.4289H105.001C106.243 16.4289 107.266 16.6406 108.07 17.0641C108.874 17.4876 109.473 18.0572 109.868 18.7727C110.263 19.4736 110.46 20.2549 110.46 21.1165C110.46 21.9343 110.27 22.701 109.89 23.4165C109.51 24.1174 108.911 24.687 108.092 25.1251C107.288 25.5486 106.25 25.7603 104.979 25.7603H102.238V31.7622H99.2782ZM107.237 31.7622L104.08 25.0155H107.281L110.614 31.7622H107.237ZM102.238 23.6136H104.825C105.717 23.6136 106.375 23.3946 106.799 22.9565C107.222 22.5184 107.434 21.9415 107.434 21.226C107.434 20.5105 107.222 19.9482 106.799 19.5393C106.389 19.1158 105.732 18.9041 104.825 18.9041H102.238V23.6136ZM119.994 32.0251C118.46 32.0251 117.137 31.6965 116.026 31.0393C114.93 30.3676 114.082 29.4403 113.483 28.2574C112.898 27.06 112.606 25.68 112.606 24.1174C112.606 22.5549 112.898 21.1749 113.483 19.9774C114.082 18.78 114.93 17.8453 116.026 17.1736C117.137 16.5019 118.46 16.166 119.994 16.166C121.85 16.166 123.371 16.626 124.555 17.546C125.739 18.466 126.477 19.7657 126.769 21.4451H123.546C123.357 20.6272 122.954 19.992 122.34 19.5393C121.741 19.072 120.952 18.8384 119.973 18.8384C119.066 18.8384 118.284 19.0574 117.627 19.4955C116.983 19.9191 116.486 20.5251 116.136 21.3136C115.785 22.0876 115.609 23.0222 115.609 24.1174C115.609 25.1981 115.785 26.1327 116.136 26.9213C116.486 27.7098 116.983 28.3158 117.627 28.7393C118.284 29.1629 119.066 29.3746 119.973 29.3746C120.952 29.3746 121.741 29.1629 122.34 28.7393C122.94 28.3013 123.335 27.6953 123.524 26.9213H126.769C126.477 28.513 125.739 29.7615 124.555 30.667C123.371 31.5724 121.85 32.0251 119.994 32.0251ZM138.966 31.7622V16.4289H141.926V31.7622H138.966ZM129.297 31.7622V16.4289H132.257V31.7622H129.297ZM131.841 25.1251V22.7374H139.471V25.1251H131.841ZM144.949 31.7622V16.4289H147.908V31.7622H144.949ZM154.496 31.7622V18.8165H150.001V16.4289H161.907V18.8165H157.434V31.7622H154.496ZM164.005 31.7622V16.4289H174.09V18.8165H166.965V22.8251H173.433V25.1251H166.965V29.3746H174.09V31.7622H164.005ZM183.672 32.0251C182.137 32.0251 180.814 31.6965 179.703 31.0393C178.607 30.3676 177.758 29.4403 177.16 28.2574C176.574 27.06 176.283 25.68 176.283 24.1174C176.283 22.5549 176.574 21.1749 177.16 19.9774C177.758 18.78 178.607 17.8453 179.703 17.1736C180.814 16.5019 182.137 16.166 183.672 16.166C185.528 16.166 187.048 16.626 188.232 17.546C189.416 18.466 190.154 19.7657 190.447 21.4451H187.224C187.033 20.6272 186.632 19.992 186.018 19.5393C185.418 19.072 184.629 18.8384 183.65 18.8384C182.743 18.8384 181.961 19.0574 181.304 19.4955C180.66 19.9191 180.164 20.5251 179.813 21.3136C179.462 22.0876 179.287 23.0222 179.287 24.1174C179.287 25.1981 179.462 26.1327 179.813 26.9213C180.164 27.7098 180.66 28.3158 181.304 28.7393C181.961 29.1629 182.743 29.3746 183.65 29.3746C184.629 29.3746 185.418 29.1629 186.018 28.7393C186.616 28.3013 187.011 27.6953 187.202 26.9213H190.447C190.154 28.513 189.416 29.7615 188.232 30.667C187.048 31.5724 185.528 32.0251 183.672 32.0251ZM196.398 31.7622V18.8165H191.903V16.4289H203.809V18.8165H199.336V31.7622H196.398ZM82.8873 53.667V47.5336H84.5448C85.2582 47.5336 85.8458 47.6593 86.3076 47.9104C86.7754 48.1615 87.1203 48.5179 87.3425 48.9794C87.5705 49.435 87.6845 49.9782 87.6845 50.6091C87.6845 51.2399 87.5705 51.7832 87.3425 52.2388C87.1203 52.6944 86.7754 53.0478 86.3076 53.299C85.8458 53.5443 85.2582 53.667 84.5448 53.667H82.8873ZM83.7643 52.931H84.5098C85.071 52.931 85.5183 52.8375 85.8516 52.6506C86.1848 52.4636 86.4216 52.1979 86.5619 51.8533C86.7081 51.5028 86.7812 51.088 86.7812 50.6091C86.7812 50.1242 86.7081 49.7066 86.5619 49.3561C86.4216 49.0056 86.1848 48.737 85.8516 48.55C85.5183 48.3631 85.071 48.2696 84.5098 48.2696H83.7643V52.931ZM94.4717 53.667V47.5336H98.348V48.2521H95.3487V50.2148H98.0849V50.9157H95.3487V52.9485H98.348V53.667H94.4717ZM107.234 53.7721C106.789 53.7721 106.398 53.6933 106.058 53.5355C105.719 53.372 105.456 53.1442 105.269 52.8521C105.082 52.56 104.988 52.2183 104.988 51.827H105.909C105.909 52.049 105.962 52.2533 106.067 52.4403C106.172 52.6213 106.322 52.7674 106.514 52.8784C106.713 52.9835 106.953 53.0361 107.234 53.0361C107.479 53.0361 107.69 52.9953 107.865 52.9134C108.046 52.8316 108.184 52.7207 108.277 52.5805C108.371 52.4345 108.418 52.268 108.418 52.0811C108.418 51.8825 108.371 51.716 108.277 51.5816C108.19 51.4414 108.067 51.3246 107.909 51.2312C107.751 51.1377 107.564 51.053 107.348 50.9771C107.137 50.9012 106.909 50.8252 106.664 50.7493C106.149 50.5857 105.772 50.3783 105.532 50.1272C105.292 49.8701 105.173 49.5401 105.173 49.1371C105.173 48.7924 105.252 48.4945 105.409 48.2433C105.573 47.9863 105.804 47.7877 106.102 47.6475C106.4 47.5015 106.748 47.4285 107.146 47.4285C107.549 47.4285 107.897 47.5015 108.19 47.6475C108.488 47.7935 108.722 47.9951 108.891 48.2521C109.061 48.5092 109.148 48.8099 109.154 49.1546H108.225C108.225 48.9969 108.184 48.8421 108.102 48.6902C108.02 48.5383 107.897 48.4156 107.734 48.3222C107.57 48.2229 107.368 48.1733 107.128 48.1733C106.93 48.1674 106.751 48.1995 106.593 48.2696C106.436 48.3397 106.31 48.4419 106.216 48.5763C106.129 48.7107 106.085 48.8713 106.085 49.0582C106.085 49.2452 106.126 49.397 106.208 49.5138C106.289 49.6248 106.403 49.7212 106.55 49.803C106.701 49.8848 106.88 49.9607 107.085 50.0308C107.289 50.0951 107.514 50.168 107.76 50.2498C108.058 50.3492 108.327 50.4718 108.567 50.6178C108.806 50.758 108.993 50.942 109.128 51.1698C109.268 51.3918 109.338 51.678 109.338 52.0285C109.338 52.3322 109.26 52.6155 109.102 52.8784C108.944 53.1413 108.71 53.3573 108.4 53.5268C108.09 53.6903 107.701 53.7721 107.234 53.7721ZM116.141 53.667V47.5336H117.018V53.667H116.141ZM126.7 53.7721C126.121 53.7721 125.616 53.6407 125.183 53.3778C124.75 53.115 124.415 52.747 124.175 52.2738C123.934 51.8007 123.815 51.2487 123.815 50.6178C123.815 49.9928 123.934 49.4408 124.175 48.9618C124.42 48.4829 124.768 48.109 125.218 47.8403C125.674 47.5657 126.212 47.4285 126.832 47.4285C127.533 47.4285 128.116 47.5979 128.577 47.9367C129.045 48.2696 129.346 48.734 129.48 49.3298H128.481C128.393 48.9911 128.209 48.7253 127.928 48.5325C127.647 48.3339 127.279 48.2346 126.823 48.2346C126.39 48.2346 126.013 48.331 125.692 48.5237C125.376 48.7165 125.134 48.9911 124.964 49.3473C124.794 49.7036 124.709 50.1272 124.709 50.6178C124.709 51.1143 124.794 51.5408 124.964 51.8971C125.134 52.2533 125.373 52.525 125.683 52.7119C125.993 52.8989 126.349 52.9923 126.753 52.9923C127.372 52.9923 127.84 52.8141 128.156 52.4578C128.472 52.1015 128.653 51.6254 128.7 51.0296H127.007V50.355H129.594V53.667H128.788L128.717 52.7294C128.572 52.9573 128.405 53.15 128.218 53.3077C128.037 53.4596 127.823 53.5764 127.577 53.6582C127.332 53.7341 127.039 53.7721 126.7 53.7721ZM136.492 53.667V47.5336H137.369L140.5 52.2475V47.5336H141.377V53.667H140.5L137.369 48.9618V53.667H136.492ZM156.389 53.667V47.5336H158.661C159.094 47.5336 159.453 47.6037 159.739 47.7439C160.026 47.8783 160.239 48.0652 160.379 48.3047C160.526 48.5383 160.599 48.8041 160.599 49.102C160.599 49.4116 160.529 49.6715 160.388 49.8818C160.255 50.0921 160.076 50.2556 159.853 50.3725C159.637 50.4834 159.404 50.5477 159.152 50.5653L159.283 50.4776C159.553 50.4834 159.795 50.5565 160.011 50.6967C160.234 50.8311 160.409 51.0121 160.537 51.2399C160.672 51.4677 160.739 51.7189 160.739 51.9934C160.739 52.3089 160.66 52.5951 160.502 52.8521C160.351 53.1033 160.125 53.3019 159.827 53.4479C159.535 53.5939 159.173 53.667 158.739 53.667H156.389ZM157.266 52.9397H158.625C159.006 52.9397 159.304 52.8521 159.52 52.6769C159.737 52.4958 159.845 52.2417 159.845 51.9146C159.845 51.5934 159.734 51.3363 159.511 51.1435C159.29 50.9508 158.988 50.8544 158.608 50.8544H157.266V52.9397ZM157.266 50.1797H158.564C158.932 50.1797 159.213 50.0951 159.406 49.9256C159.599 49.7504 159.695 49.5109 159.695 49.2072C159.695 48.9151 159.599 48.6844 159.406 48.515C159.213 48.3397 158.927 48.2521 158.547 48.2521H157.266V50.1797ZM169.739 53.7721C169.312 53.7721 168.924 53.6874 168.573 53.518C168.222 53.3428 167.941 53.0799 167.731 52.7294C167.526 52.3732 167.424 51.9204 167.424 51.3713V47.5336H168.301V51.3801C168.301 51.7481 168.359 52.0518 168.476 52.2914C168.599 52.525 168.771 52.7002 168.994 52.8171C169.215 52.928 169.47 52.9835 169.757 52.9835C170.055 52.9835 170.312 52.928 170.529 52.8171C170.745 52.7002 170.911 52.525 171.029 52.2914C171.151 52.0518 171.213 51.7481 171.213 51.3801V47.5336H172.09V51.3713C172.09 51.9204 171.984 52.3732 171.774 52.7294C171.563 53.0799 171.28 53.3428 170.923 53.518C170.572 53.6874 170.178 53.7721 169.739 53.7721ZM179.027 53.667V47.5336H179.904V53.667H179.027ZM186.937 53.667V47.5336H187.814V52.9748H190.621V53.667H186.937ZM197.391 53.667V47.5336H199.049C199.763 47.5336 200.35 47.6593 200.812 47.9104C201.28 48.1615 201.624 48.5179 201.846 48.9794C202.075 49.435 202.189 49.9782 202.189 50.6091C202.189 51.2399 202.075 51.7832 201.846 52.2388C201.624 52.6944 201.28 53.0478 200.812 53.299C200.35 53.5443 199.763 53.667 199.049 53.667H197.391ZM198.268 52.931H199.014C199.575 52.931 200.022 52.8375 200.356 52.6506C200.689 52.4636 200.926 52.1979 201.066 51.8533C201.212 51.5028 201.285 51.088 201.285 50.6091C201.285 50.1242 201.212 49.7066 201.066 49.3561C200.926 49.0056 200.689 48.737 200.356 48.55C200.022 48.3631 199.575 48.2696 199.014 48.2696H198.268V52.931Z" fill="black"/>
</svg>
