<svg width="199" height="82" viewBox="0 0 199 82" fill="none" xmlns="http://www.w3.org/2000/svg">
<path d="M0 24.9039H43.5838M43.5838 24.9039V73.4188M43.5838 24.9039H65.2108M86.8379 24.9039H65.2108M65.2108 24.9039V44.7059M31.6974 11.3726V38.4353M31.6974 38.4353V81.9996M31.6974 38.4353H50.8478V73.4188M16.1789 73.4188H43.5838M43.5838 73.4188H50.8478M86.1776 73.4188H50.8478M76.6019 9.72241V49.9864M76.6019 49.9864V78.0393M76.6019 49.9864L65.706 44.7059M30.0465 43.3858H98.3937M65.2108 44.7059V64.5079H53.4893V50.9765L65.2108 44.7059ZM58.442 77.3791V10.3825M55.8006 0.811523L99.3847 54.2769" stroke="black" stroke-width="2"/>
<path d="M111.117 30.9483C110.559 30.9483 110.077 30.8265 109.671 30.583C109.271 30.334 108.959 29.9903 108.737 29.5519C108.52 29.108 108.412 28.5939 108.412 28.0093C108.412 27.4302 108.52 26.9187 108.737 26.4749C108.959 26.031 109.271 25.6873 109.671 25.4438C110.077 25.1948 110.559 25.0703 111.117 25.0703C111.783 25.0703 112.321 25.23 112.733 25.5493C113.15 25.8686 113.416 26.3179 113.529 26.897H112.636C112.555 26.5615 112.386 26.2936 112.132 26.0933C111.883 25.893 111.545 25.7929 111.117 25.7929C110.733 25.7929 110.4 25.8822 110.118 26.0608C109.836 26.2394 109.62 26.4938 109.468 26.824C109.316 27.1542 109.241 27.5492 109.241 28.0093C109.241 28.4694 109.316 28.8672 109.468 29.2028C109.62 29.533 109.836 29.7873 110.118 29.966C110.4 30.1391 110.733 30.2258 111.117 30.2258C111.545 30.2258 111.883 30.131 112.132 29.9416C112.386 29.7467 112.555 29.4843 112.636 29.1541H113.529C113.416 29.717 113.15 30.1581 112.733 30.4774C112.321 30.7914 111.783 30.9483 111.117 30.9483ZM119.78 30.8509V25.1677H121.705C122.155 25.1677 122.523 25.2435 122.81 25.3951C123.098 25.5466 123.309 25.7496 123.444 26.004C123.585 26.253 123.655 26.5371 123.655 26.8565C123.655 27.1595 123.585 27.441 123.444 27.7008C123.309 27.9552 123.094 28.1609 122.802 28.3178C122.509 28.4694 122.136 28.5452 121.681 28.5452H120.593V30.8509H119.78ZM122.769 30.8509L121.543 28.326H122.436L123.712 30.8509H122.769ZM120.593 27.9281H121.648C122.05 27.9281 122.345 27.8307 122.534 27.6359C122.724 27.4356 122.818 27.1812 122.818 26.8727C122.818 26.5587 122.726 26.3098 122.542 26.1258C122.358 25.9417 122.06 25.8497 121.648 25.8497H120.593V27.9281ZM129.986 30.8509V25.1677H133.576V25.8335H130.798V27.6521H133.333V28.3016H130.798V30.1852H133.576V30.8509H129.986ZM139.541 30.8509L141.628 25.1677H142.513L144.601 30.8509H143.732L142.067 26.142L140.393 30.8509H139.541ZM140.483 29.4464L140.71 28.7968H143.383L143.61 29.4464H140.483ZM151.388 30.8509V25.8335H149.707V25.1677H153.89V25.8335H152.2V30.8509H151.388ZM159.991 30.8509V25.1677H160.804V30.8509H159.991ZM168.951 30.8509L166.839 25.1677H167.717L169.439 30.0065L171.177 25.1677H172.038L169.926 30.8509H168.951ZM178.07 30.8509V25.1677H181.66V25.8335H178.882V27.6521H181.417V28.3016H178.882V30.1852H181.66V30.8509H178.07ZM109.039 47.0885V36.8588H113.235C113.947 36.8588 114.546 36.9709 115.034 37.1949C115.521 37.419 115.886 37.7308 116.13 38.1302C116.384 38.5199 116.51 38.973 116.51 39.4893C116.51 40.0057 116.398 40.4392 116.174 40.79C115.95 41.1407 115.652 41.4135 115.282 41.6083C114.921 41.7934 114.522 41.9006 114.083 41.9298L114.317 41.7691C114.785 41.7886 115.199 41.9152 115.56 42.149C115.93 42.3731 116.218 42.6751 116.422 43.0551C116.637 43.4351 116.744 43.8491 116.744 44.2973C116.744 44.8429 116.613 45.3251 116.349 45.7441C116.086 46.163 115.706 46.4942 115.209 46.7378C114.712 46.9716 114.103 47.0885 113.381 47.0885H109.039ZM111.013 45.481H113.06C113.596 45.481 114.01 45.3592 114.303 45.1157C114.595 44.8721 114.741 44.5214 114.741 44.0635C114.741 43.6056 114.59 43.25 114.288 42.9966C113.986 42.7336 113.567 42.6021 113.031 42.6021H111.013V45.481ZM111.013 41.1261H112.914C113.43 41.1261 113.82 41.0092 114.083 40.7753C114.356 40.5415 114.493 40.2103 114.493 39.7816C114.493 39.3627 114.356 39.0363 114.083 38.8025C113.82 38.5589 113.425 38.4371 112.899 38.4371H111.013V41.1261ZM125.249 47.2639C124.499 47.2639 123.816 47.1129 123.202 46.8109C122.588 46.5088 122.101 46.0558 121.74 45.4518C121.38 44.8477 121.199 44.0781 121.199 43.1428V36.8588H123.173V43.1574C123.173 43.664 123.256 44.0927 123.422 44.4434C123.587 44.7844 123.826 45.0377 124.138 45.2033C124.46 45.369 124.84 45.4518 125.278 45.4518C125.727 45.4518 126.107 45.369 126.419 45.2033C126.74 45.0377 126.984 44.7844 127.15 44.4434C127.316 44.0927 127.398 43.664 127.398 43.1574V36.8588H129.372V43.1428C129.372 44.0781 129.187 44.8477 128.817 45.4518C128.446 46.0558 127.944 46.5088 127.311 46.8109C126.687 47.1129 126 47.2639 125.249 47.2639ZM134.22 47.0885V36.8588H136.193V47.0885H134.22ZM141.127 47.0885V36.8588H143.101V45.5541H147.589V47.0885H141.127ZM152.204 47.0885V36.8588H155.625C156.814 36.8588 157.793 37.0732 158.563 37.5018C159.343 37.9208 159.918 38.5151 160.289 39.2847C160.669 40.0447 160.859 40.941 160.859 41.9737C160.859 43.0064 160.669 43.9076 160.289 44.6772C159.918 45.4372 159.348 46.0315 158.578 46.4601C157.808 46.8791 156.824 47.0885 155.625 47.0885H152.204ZM154.177 45.3933H155.522C156.361 45.3933 157.018 45.2569 157.496 44.9841C157.983 44.7113 158.329 44.3216 158.534 43.815C158.739 43.2987 158.841 42.6849 158.841 41.9737C158.841 41.2527 158.739 40.6389 158.534 40.1323C158.329 39.616 157.983 39.2214 157.496 38.9486C157.018 38.6758 156.361 38.5394 155.522 38.5394H154.177V45.3933ZM169.427 47.2639C168.677 47.2639 167.994 47.1129 167.38 46.8109C166.766 46.5088 166.279 46.0558 165.918 45.4518C165.558 44.8477 165.377 44.0781 165.377 43.1428V36.8588H167.351V43.1574C167.351 43.664 167.434 44.0927 167.6 44.4434C167.765 44.7844 168.004 45.0377 168.316 45.2033C168.638 45.369 169.018 45.4518 169.456 45.4518C169.905 45.4518 170.285 45.369 170.597 45.2033C170.918 45.0377 171.162 44.7844 171.328 44.4434C171.494 44.0927 171.576 43.664 171.576 43.1574V36.8588H173.55V43.1428C173.55 44.0781 173.365 44.8477 172.995 45.4518C172.624 46.0558 172.122 46.5088 171.489 46.8109C170.865 47.1129 170.178 47.2639 169.427 47.2639ZM178.398 47.0885V36.8588H182.214C183.042 36.8588 183.724 37.0001 184.26 37.2826C184.796 37.5652 185.196 37.9451 185.459 38.4225C185.722 38.8902 185.854 39.4114 185.854 39.9862C185.854 40.5318 185.727 41.0433 185.474 41.5206C185.22 41.9883 184.821 42.3683 184.275 42.6605C183.739 42.9431 183.047 43.0843 182.199 43.0843H180.371V47.0885H178.398ZM183.705 47.0885L181.599 42.5875H183.734L185.956 47.0885H183.705ZM180.371 41.6522H182.097C182.691 41.6522 183.13 41.506 183.412 41.2138C183.695 40.9215 183.836 40.5366 183.836 40.0593C183.836 39.5819 183.695 39.2068 183.412 38.934C183.139 38.6515 182.701 38.5102 182.097 38.5102H180.371V41.6522ZM194.068 47.2639C193.327 47.2639 192.665 47.1372 192.08 46.8839C191.505 46.6306 191.047 46.2604 190.706 45.7733C190.374 45.2862 190.204 44.6967 190.194 44.005H192.285C192.294 44.307 192.372 44.5798 192.518 44.8234C192.665 45.0669 192.864 45.2618 193.118 45.4079C193.381 45.5443 193.693 45.6125 194.054 45.6125C194.366 45.6125 194.634 45.5638 194.858 45.4664C195.092 45.3592 195.272 45.2131 195.399 45.028C195.525 44.8429 195.589 44.6237 195.589 44.3704C195.589 44.0781 195.516 43.8345 195.369 43.6397C195.233 43.4448 195.038 43.2792 194.785 43.1428C194.541 43.0064 194.253 42.8846 193.922 42.7774C193.6 42.6605 193.259 42.5387 192.899 42.4121C192.09 42.149 191.471 41.7983 191.042 41.3599C190.623 40.9215 190.413 40.3418 190.413 39.6208C190.413 39.0071 190.559 38.481 190.852 38.0426C191.154 37.6041 191.568 37.268 192.094 37.0342C192.621 36.8004 193.22 36.6835 193.893 36.6835C194.585 36.6835 195.189 36.8052 195.706 37.0488C196.232 37.2826 196.646 37.6236 196.948 38.0718C197.26 38.5199 197.421 39.046 197.431 39.6501H195.326C195.316 39.426 195.248 39.2165 195.121 39.0217C195.004 38.8171 194.838 38.6563 194.624 38.5394C194.409 38.4128 194.156 38.3494 193.864 38.3494C193.61 38.3397 193.376 38.3787 193.162 38.4664C192.957 38.554 192.791 38.6856 192.665 38.8609C192.548 39.0266 192.489 39.236 192.489 39.4893C192.489 39.7329 192.548 39.9375 192.665 40.1031C192.791 40.2687 192.962 40.4149 193.176 40.5415C193.391 40.6584 193.644 40.7705 193.937 40.8776C194.229 40.9751 194.546 41.0774 194.887 41.1845C195.394 41.3599 195.862 41.5694 196.291 41.8129C196.719 42.0467 197.061 42.3536 197.314 42.7336C197.567 43.1136 197.694 43.6153 197.694 44.2388C197.694 44.7747 197.553 45.2715 197.27 45.7294C196.987 46.1873 196.578 46.5576 196.042 46.8401C195.516 47.1226 194.858 47.2639 194.068 47.2639ZM108.258 63.3262L110.345 57.643H111.231L113.318 63.3262H112.449L110.784 58.6172L109.111 63.3262H108.258ZM109.2 61.9216L109.427 61.2721H112.1L112.327 61.9216H109.2ZM119.408 63.3262V57.643H121.333C121.783 57.643 122.15 57.7187 122.437 57.8703C122.725 58.0219 122.936 58.2249 123.071 58.4792C123.212 58.7282 123.282 59.0124 123.282 59.3317C123.282 59.6348 123.212 59.9163 123.071 60.1761C122.936 60.4304 122.721 60.6361 122.429 60.7931C122.137 60.9447 121.763 61.0204 121.308 61.0204H120.22V63.3262H119.408ZM122.397 63.3262L121.17 60.8012H122.064L123.339 63.3262H122.397ZM120.22 60.4034H121.276C121.677 60.4034 121.972 60.306 122.161 60.1111C122.351 59.9108 122.445 59.6565 122.445 59.3479C122.445 59.034 122.354 58.7851 122.169 58.601C121.986 58.417 121.687 58.325 121.276 58.325H120.22V60.4034ZM132.107 63.4236C131.549 63.4236 131.067 63.3018 130.661 63.0582C130.26 62.8092 129.949 62.4656 129.727 62.0271C129.51 61.5833 129.402 61.0691 129.402 60.4846C129.402 59.9055 129.51 59.394 129.727 58.9501C129.949 58.5063 130.26 58.1626 130.661 57.919C131.067 57.67 131.549 57.5456 132.107 57.5456C132.773 57.5456 133.312 57.7053 133.723 58.0246C134.14 58.3439 134.406 58.7932 134.519 59.3723H133.626C133.545 59.0367 133.376 58.7688 133.122 58.5685C132.873 58.3682 132.534 58.2681 132.107 58.2681C131.722 58.2681 131.389 58.3574 131.108 58.5361C130.826 58.7147 130.609 58.969 130.458 59.2992C130.306 59.6294 130.231 60.0245 130.231 60.4846C130.231 60.9447 130.306 61.3425 130.458 61.678C130.609 62.0082 130.826 62.2626 131.108 62.4412C131.389 62.6144 131.722 62.701 132.107 62.701C132.534 62.701 132.873 62.6063 133.122 62.4168C133.376 62.222 133.545 61.9595 133.626 61.6293H134.519C134.406 62.1922 134.14 62.6334 133.723 62.9527C133.312 63.2666 132.773 63.4236 132.107 63.4236ZM144.385 63.3262V57.643H145.197V63.3262H144.385ZM140.77 63.3262V57.643H141.583V63.3262H140.77ZM141.445 60.7606V60.0949H144.564V60.7606H141.445ZM151.666 63.3262V57.643H152.478V63.3262H151.666ZM160.268 63.3262V58.3087H158.587V57.643H162.77V58.3087H161.081V63.3262H160.268ZM168.872 63.3262V57.643H172.463V58.3087H169.685V60.1273H172.219V60.7768H169.685V62.6604H172.463V63.3262H168.872ZM181.286 63.4236C180.728 63.4236 180.246 63.3018 179.84 63.0582C179.439 62.8092 179.128 62.4656 178.906 62.0271C178.689 61.5833 178.581 61.0691 178.581 60.4846C178.581 59.9055 178.689 59.394 178.906 58.9501C179.128 58.5063 179.439 58.1626 179.84 57.919C180.246 57.67 180.728 57.5456 181.286 57.5456C181.952 57.5456 182.491 57.7053 182.902 58.0246C183.319 58.3439 183.585 58.7932 183.698 59.3723H182.805C182.724 59.0367 182.555 58.7688 182.301 58.5685C182.052 58.3682 181.713 58.2681 181.286 58.2681C180.901 58.2681 180.568 58.3574 180.287 58.5361C180.005 58.7147 179.788 58.969 179.637 59.2992C179.485 59.6294 179.41 60.0245 179.41 60.4846C179.41 60.9447 179.485 61.3425 179.637 61.678C179.788 62.0082 180.005 62.2626 180.287 62.4412C180.568 62.6144 180.901 62.701 181.286 62.701C181.713 62.701 182.052 62.6063 182.301 62.4168C182.555 62.222 182.724 61.9595 182.805 61.6293H183.698C183.585 62.1922 183.319 62.6334 182.902 62.9527C182.491 63.2666 181.952 63.4236 181.286 63.4236ZM191.162 63.3262V58.3087H189.481V57.643H193.664V58.3087H191.974V63.3262H191.162Z" fill="black"/>
</svg>
