<svg width="100" height="82" viewBox="0 0 100 82" fill="none" xmlns="http://www.w3.org/2000/svg">
<g clip-path="url(#clip0_210_1805)">
<path d="M26.6229 24.2657V15.8591H23.7188V14.3086H31.4112V15.8591H28.5213V24.2657H26.6229ZM39.0142 24.2657V14.3086H40.9268V24.2657H39.0142ZM32.7668 24.2657V14.3086H34.6792V24.2657H32.7668ZM34.4101 19.9557V18.4052H39.3401V19.9557H34.4101ZM42.8798 24.2657V14.3086H49.3965V15.8591H44.7923V18.4621H48.9715V19.9557H44.7923V22.7153H49.3965V24.2657H42.8798ZM24.3138 45.1841V35.227H27.6288C28.781 35.227 29.7302 35.4356 30.4763 35.8528C31.2318 36.2606 31.789 36.8391 32.1479 37.5882C32.5163 38.3279 32.7004 39.2004 32.7004 40.2055C32.7004 41.2107 32.5163 42.0879 32.1479 42.8371C31.789 43.5767 31.2365 44.1552 30.4904 44.5724C29.7443 44.9802 28.7904 45.1841 27.6288 45.1841H24.3138ZM26.2263 43.5341H27.5296C28.3418 43.5341 28.9793 43.4013 29.4421 43.1358C29.9143 42.8703 30.2496 42.4909 30.4479 41.9978C30.6463 41.4952 30.7454 40.8978 30.7454 40.2055C30.7454 39.5038 30.6463 38.9063 30.4479 38.4132C30.2496 37.9106 29.9143 37.5266 29.4421 37.2611C28.9793 36.9956 28.3418 36.8628 27.5296 36.8628H26.2263V43.5341ZM34.33 45.1841V35.227H40.8467V36.7774H36.2425V39.3805H40.4217V40.8741H36.2425V43.6336H40.8467V45.1841H34.33ZM46.0035 45.3548C45.2857 45.3548 44.6435 45.2315 44.0768 44.985C43.5196 44.7384 43.0757 44.3781 42.7452 43.9039C42.424 43.4297 42.2588 42.8561 42.2493 42.1827H44.2752C44.2846 42.4767 44.3602 42.7423 44.5018 42.9793C44.6435 43.2164 44.8371 43.406 45.0827 43.5483C45.3377 43.6811 45.6398 43.7474 45.9893 43.7474C46.2915 43.7474 46.5512 43.7 46.7685 43.6052C46.9952 43.5008 47.1698 43.3586 47.2927 43.1784C47.4154 42.9983 47.4768 42.7849 47.4768 42.5383C47.4768 42.2539 47.406 42.0168 47.2643 41.8271C47.1321 41.6374 46.9432 41.4763 46.6977 41.3435C46.4615 41.2107 46.1829 41.0922 45.8618 40.9879C45.5502 40.8741 45.2196 40.7555 44.8702 40.6323C44.0862 40.3762 43.4865 40.0348 43.071 39.6081C42.6648 39.1814 42.4618 38.6172 42.4618 37.9154C42.4618 37.318 42.6035 36.8059 42.8868 36.3791C43.1796 35.9524 43.581 35.6252 44.091 35.3977C44.601 35.1701 45.1818 35.0563 45.8335 35.0563C46.504 35.0563 47.0896 35.1748 47.5902 35.4119C48.1002 35.6395 48.5015 35.9714 48.7943 36.4076C49.0965 36.8438 49.2523 37.3559 49.2618 37.9438H47.2218C47.2123 37.7257 47.1463 37.5219 47.0235 37.3322C46.9102 37.133 46.7496 36.9766 46.5418 36.8628C46.334 36.7395 46.0885 36.6779 45.8052 36.6779C45.5596 36.6684 45.3329 36.7063 45.1252 36.7917C44.9268 36.877 44.7662 37.005 44.6435 37.1757C44.5302 37.337 44.4735 37.5408 44.4735 37.7874C44.4735 38.0244 44.5302 38.2236 44.6435 38.3848C44.7662 38.546 44.9315 38.6883 45.1393 38.8115C45.3471 38.9253 45.5927 39.0344 45.876 39.1387C46.1593 39.2335 46.4662 39.3331 46.7968 39.4374C47.2879 39.6081 47.7412 39.812 48.1568 40.0491C48.5723 40.2767 48.9029 40.5754 49.1485 40.9452C49.394 41.315 49.5168 41.8034 49.5168 42.4103C49.5168 42.9319 49.3798 43.4155 49.106 43.8612C48.8321 44.307 48.4354 44.6673 47.916 44.9423C47.406 45.2173 46.7685 45.3548 46.0035 45.3548ZM51.1391 45.1841V35.227H53.0516V45.1841H51.1391ZM59.3482 45.3548C58.4037 45.3548 57.582 45.1462 56.8832 44.7289C56.1842 44.3022 55.6412 43.7095 55.254 42.9509C54.8667 42.1827 54.6732 41.2914 54.6732 40.2767C54.6732 39.2525 54.8715 38.3516 55.2682 37.574C55.6648 36.7869 56.2362 36.1705 56.9823 35.7248C57.7284 35.2791 58.6209 35.0563 59.6598 35.0563C60.8215 35.0563 61.7848 35.336 62.5498 35.8955C63.3242 36.455 63.8248 37.2326 64.0515 38.2283H61.9123C61.7707 37.7921 61.5062 37.4508 61.119 37.2042C60.7412 36.9481 60.2501 36.8201 59.6457 36.8201C59.0034 36.8201 58.4557 36.9623 58.0023 37.2468C57.549 37.5313 57.2043 37.9296 56.9682 38.4417C56.732 38.9538 56.614 39.5654 56.614 40.2767C56.614 40.9973 56.732 41.609 56.9682 42.1116C57.2043 42.6142 57.5395 42.9983 57.974 43.2638C58.4178 43.5198 58.9373 43.6479 59.5323 43.6479C60.4012 43.6479 61.0576 43.4155 61.5015 42.9509C61.9548 42.4767 62.224 41.865 62.309 41.1159H59.8723V39.6792H64.2357V45.1841H62.4648L62.3232 43.9181C62.1153 44.2311 61.8698 44.4966 61.5865 44.7147C61.3126 44.9233 60.9915 45.0798 60.6232 45.1841C60.2548 45.2979 59.8298 45.3548 59.3482 45.3548ZM66.0252 45.1841V35.227H67.9377L72.4993 42.0974V35.227H74.4118V45.1841H72.4993L67.9377 38.3279V45.1841H66.0252ZM27.7279 66.2732C27.0102 66.2732 26.3679 66.1499 25.8013 65.9033C25.244 65.6567 24.8002 65.2964 24.4696 64.8223C24.1485 64.3481 23.9832 63.7744 23.9737 63.1011H25.9996C26.009 63.3951 26.0846 63.6606 26.2263 63.8977C26.3679 64.1347 26.5615 64.3244 26.8071 64.4667C27.0621 64.5994 27.3643 64.6658 27.7137 64.6658C28.016 64.6658 28.2757 64.6184 28.4929 64.5236C28.7196 64.4192 28.8943 64.277 29.0171 64.0968C29.1398 63.9167 29.2012 63.7033 29.2012 63.4567C29.2012 63.1722 29.1304 62.9352 28.9888 62.7455C28.8565 62.5558 28.6677 62.3946 28.4221 62.2619C28.186 62.1291 27.9073 62.0106 27.5862 61.9062C27.2746 61.7924 26.944 61.6739 26.5946 61.5506C25.8107 61.2946 25.211 60.9532 24.7954 60.5265C24.3893 60.0997 24.1863 59.5355 24.1863 58.8338C24.1863 58.2363 24.3279 57.7242 24.6113 57.2975C24.904 56.8708 25.3054 56.5436 25.8154 56.316C26.3254 56.0884 26.9063 55.9746 27.5579 55.9746C28.2285 55.9746 28.814 56.0932 29.3146 56.3302C29.8246 56.5578 30.226 56.8898 30.5187 57.326C30.821 57.7621 30.9768 58.2742 30.9863 58.8622H28.9462C28.9368 58.6441 28.8707 58.4402 28.7479 58.2505C28.6346 58.0514 28.474 57.8949 28.2663 57.7811C28.0585 57.6579 27.8129 57.5962 27.5296 57.5962C27.284 57.5868 27.0573 57.6247 26.8496 57.71C26.6512 57.7954 26.4907 57.9234 26.3679 58.0941C26.2546 58.2553 26.1979 58.4592 26.1979 58.7057C26.1979 58.9428 26.2546 59.1419 26.3679 59.3032C26.4907 59.4644 26.656 59.6067 26.8638 59.7299C27.0715 59.8437 27.3171 59.9527 27.6004 60.0571C27.8838 60.1519 28.1907 60.2514 28.5213 60.3558C29.0123 60.5265 29.4657 60.7304 29.8813 60.9674C30.2968 61.195 30.6273 61.4937 30.8729 61.8636C31.1185 62.2334 31.2413 62.7218 31.2413 63.3287C31.2413 63.8502 31.1043 64.3339 30.8304 64.7796C30.5565 65.2253 30.1598 65.5856 29.6404 65.8607C29.1304 66.1357 28.4929 66.2732 27.7279 66.2732ZM35.0759 66.1025V57.6958H32.1718V56.1453H39.8642V57.6958H36.9743V66.1025H35.0759ZM45.0588 66.2732C44.3316 66.2732 43.6705 66.1262 43.0755 65.8322C42.4805 65.5383 42.0082 65.0973 41.6588 64.5093C41.3094 63.9214 41.1347 63.1722 41.1347 62.2619V56.1453H43.0472V62.2761C43.0472 62.7692 43.1274 63.1864 43.288 63.5278C43.4486 63.8598 43.6799 64.1063 43.9822 64.2675C44.2938 64.4287 44.6622 64.5093 45.0872 64.5093C45.5216 64.5093 45.8899 64.4287 46.1922 64.2675C46.5038 64.1063 46.7399 63.8598 46.9005 63.5278C47.0611 63.1864 47.1413 62.7692 47.1413 62.2761V56.1453H49.0538V62.2619C49.0538 63.1722 48.8744 63.9214 48.5155 64.5093C48.1566 65.0973 47.6702 65.5383 47.0563 65.8322C46.4519 66.1262 45.7861 66.2732 45.0588 66.2732ZM50.9178 66.1025V56.1453H54.2327C55.385 56.1453 56.3342 56.3539 57.0802 56.7712C57.8358 57.1789 58.393 57.7575 58.7519 58.5066C59.1203 59.2463 59.3044 60.1187 59.3044 61.1239C59.3044 62.1291 59.1203 63.0063 58.7519 63.7554C58.393 64.4951 57.8405 65.0735 57.0944 65.4908C56.3483 65.8986 55.3944 66.1025 54.2327 66.1025H50.9178ZM52.8302 64.4524H54.1336C54.9458 64.4524 55.5833 64.3196 56.0461 64.0541C56.5183 63.7887 56.8536 63.4093 57.0519 62.9162C57.2503 62.4136 57.3494 61.8161 57.3494 61.1239C57.3494 60.4221 57.2503 59.8247 57.0519 59.3316C56.8536 58.829 56.5183 58.4449 56.0461 58.1794C55.5833 57.9139 54.9458 57.7811 54.1336 57.7811H52.8302V64.4524ZM60.934 66.1025V56.1453H62.8465V66.1025H60.934ZM69.3697 66.2732C68.4064 66.2732 67.5564 66.055 66.8197 65.6188C66.0831 65.1826 65.5069 64.5805 65.0914 63.8123C64.6758 63.0348 64.4681 62.1386 64.4681 61.1239C64.4681 60.1092 64.6758 59.2178 65.0914 58.4497C65.5069 57.6721 66.0831 57.0652 66.8197 56.629C67.5564 56.1928 68.4064 55.9746 69.3697 55.9746C70.3425 55.9746 71.1973 56.1928 71.9339 56.629C72.6706 57.0652 73.2419 57.6721 73.6481 58.4497C74.0636 59.2178 74.2714 60.1092 74.2714 61.1239C74.2714 62.1386 74.0636 63.0348 73.6481 63.8123C73.2419 64.5805 72.6706 65.1826 71.9339 65.6188C71.1973 66.055 70.3425 66.2732 69.3697 66.2732ZM69.3697 64.552C69.9742 64.552 70.4936 64.4145 70.9281 64.1395C71.3719 63.855 71.7167 63.4567 71.9622 62.9446C72.2077 62.4325 72.3306 61.8257 72.3306 61.1239C72.3306 60.4127 72.2077 59.8058 71.9622 59.3032C71.7167 58.7911 71.3719 58.3976 70.9281 58.1225C70.4936 57.8475 69.9742 57.71 69.3697 57.71C68.7747 57.71 68.2552 57.8475 67.8114 58.1225C67.3675 58.3976 67.0228 58.7911 66.7773 59.3032C66.5317 59.8058 66.4089 60.4127 66.4089 61.1239C66.4089 61.8257 66.5317 62.4325 66.7773 62.9446C67.0228 63.4567 67.3675 63.855 67.8114 64.1395C68.2552 64.4145 68.7747 64.552 69.3697 64.552Z" fill="black"/>
<path d="M84.1909 25.0744V1.59433H98.9009V80.7451H0.835938V1.59433H57.4118M61.1835 0.836914C61.1835 8.03244 65.1815 22.8779 81.1736 24.6957" stroke="black" stroke-width="2"/>
</g>
<defs>
<clipPath id="clip0_210_1805">
<rect width="100" height="82" fill="white"/>
</clipPath>
</defs>
</svg>
