<svg width="170" height="90" viewBox="0 0 170 90" fill="none" xmlns="http://www.w3.org/2000/svg">
<path d="M35.8187 84L70.5672 64M35.8187 84L18.4445 74M35.8187 84V28M70.5672 64V45.25M70.5672 64L52.9257 54.5231M18.4445 74L1.07031 64M18.4445 74V55M35.8187 28V8M35.8187 28L70.5672 45.25M1.07031 64V26.5L35.8187 8M1.07031 64L18.4445 55M35.8187 8L53.193 17.25M18.4445 55V36L52.9257 54.5231M53.193 17.25L70.5672 26.5V45.25M53.193 17.25L52.9257 54.5231" stroke="black" stroke-width="2"/>
<path d="M86.7508 22V10.18H82.3672V8H93.9785V10.18H89.6162V22H86.7508ZM105.455 22V8H108.342V22H105.455ZM96.0245 22V8H98.9113V22H96.0245ZM98.505 15.94V13.76H105.947V15.94H98.505ZM111.29 22V8H121.126V10.18H114.176V13.84H120.485V15.94H114.176V19.82H121.126V22H111.29ZM88.4188 52.24C87.3354 52.24 86.3659 52.0667 85.5106 51.72C84.6695 51.3733 83.9995 50.8667 83.5005 50.2C83.0159 49.5333 82.7663 48.7267 82.7521 47.78H85.81C85.8242 48.1933 85.9383 48.5667 86.1521 48.9C86.3659 49.2333 86.6581 49.5 87.0288 49.7C87.4137 49.8867 87.8699 49.98 88.3974 49.98C88.8536 49.98 89.2456 49.9133 89.5735 49.78C89.9156 49.6333 90.1794 49.4333 90.3647 49.18C90.55 48.9267 90.6427 48.6267 90.6427 48.28C90.6427 47.88 90.5357 47.5467 90.3219 47.28C90.1223 47.0133 89.8372 46.7867 89.4666 46.6C89.1102 46.4133 88.6896 46.2467 88.2049 46.1C87.7345 45.94 87.2355 45.7733 86.7081 45.6C85.5248 45.24 84.6196 44.76 83.9923 44.16C83.3794 43.56 83.0728 42.7667 83.0728 41.78C83.0728 40.94 83.2867 40.22 83.7144 39.62C84.1563 39.02 84.7622 38.56 85.532 38.24C86.3018 37.92 87.1785 37.76 88.1622 37.76C89.1743 37.76 90.0581 37.9267 90.8137 38.26C91.5835 38.58 92.1894 39.0467 92.6313 39.66C93.0876 40.2733 93.3228 40.9933 93.337 41.82H90.2577C90.2435 41.5133 90.1437 41.2267 89.9584 40.96C89.7873 40.68 89.5449 40.46 89.2313 40.3C88.9177 40.1267 88.5471 40.04 88.1194 40.04C87.7487 40.0267 87.4066 40.08 87.093 40.2C86.7936 40.32 86.5512 40.5 86.3659 40.74C86.1949 40.9667 86.1093 41.2533 86.1093 41.6C86.1093 41.9333 86.1949 42.2133 86.3659 42.44C86.5512 42.6667 86.8008 42.8667 87.1144 43.04C87.428 43.2 87.7986 43.3533 88.2263 43.5C88.654 43.6333 89.1173 43.7733 89.6162 43.92C90.3575 44.16 91.0418 44.4467 91.6691 44.78C92.2964 45.1 92.7952 45.52 93.1659 46.04C93.5366 46.56 93.7219 47.2467 93.7219 48.1C93.7219 48.8333 93.5152 49.5133 93.1018 50.14C92.6883 50.7667 92.0896 51.2733 91.3056 51.66C90.5357 52.0467 89.5735 52.24 88.4188 52.24ZM96.1707 52V38H101.773C102.985 38 103.99 38.1933 104.788 38.58C105.587 38.9667 106.178 39.4867 106.563 40.14C106.948 40.7933 107.14 41.54 107.14 42.38C107.14 43.1533 106.955 43.8667 106.584 44.52C106.214 45.1733 105.629 45.7067 104.831 46.12C104.033 46.52 103.013 46.72 101.773 46.72H99.0574V52H96.1707ZM99.0574 44.54H101.602C102.529 44.54 103.192 44.3467 103.591 43.96C104.004 43.56 104.211 43.0333 104.211 42.38C104.211 41.6867 104.004 41.1533 103.591 40.78C103.192 40.3933 102.529 40.2 101.602 40.2H99.0574V44.54ZM106.734 52L112.209 38H115.481L120.934 52H117.876L113.834 41.08L109.771 52H106.734ZM109.151 48.82L109.921 46.72H117.534L118.282 48.82H109.151ZM128.759 52.24C127.262 52.24 125.972 51.94 124.889 51.34C123.819 50.7267 122.992 49.88 122.408 48.8C121.837 47.7067 121.553 46.4467 121.553 45.02C121.553 43.5933 121.837 42.3333 122.408 41.24C122.992 40.1467 123.819 39.2933 124.889 38.68C125.972 38.0667 127.262 37.76 128.759 37.76C130.569 37.76 132.052 38.18 133.207 39.02C134.362 39.86 135.081 41.0467 135.367 42.58H132.223C132.037 41.8333 131.646 41.2533 131.047 40.84C130.462 40.4133 129.692 40.2 128.738 40.2C127.853 40.2 127.091 40.4 126.45 40.8C125.822 41.1867 125.338 41.74 124.995 42.46C124.653 43.1667 124.482 44.02 124.482 45.02C124.482 46.0067 124.653 46.86 124.995 47.58C125.338 48.3 125.822 48.8533 126.45 49.24C127.091 49.6267 127.853 49.82 128.738 49.82C129.692 49.82 130.462 49.6267 131.047 49.24C131.631 48.84 132.016 48.2867 132.202 47.58H135.367C135.081 49.0333 134.362 50.1733 133.207 51C132.052 51.8267 130.569 52.24 128.759 52.24ZM137.831 52V38H147.668V40.18H140.718V43.84H147.026V45.94H140.718V49.82H147.668V52H137.831ZM89.8301 82.24C88.4045 82.24 87.1643 81.9467 86.1093 81.36C85.0544 80.76 84.2347 79.9267 83.6502 78.86C83.0657 77.78 82.7735 76.5267 82.7735 75.1C82.7735 73.66 83.0728 72.3933 83.6716 71.3C84.2703 70.1933 85.1328 69.3267 86.259 68.7C87.3852 68.0733 88.7323 67.76 90.3005 67.76C92.054 67.76 93.5081 68.1533 94.6628 68.94C95.8317 69.7267 96.5873 70.82 96.9295 72.22H93.7005C93.4867 71.6067 93.0876 71.1267 92.503 70.78C91.9328 70.42 91.1915 70.24 90.2791 70.24C89.3097 70.24 88.4829 70.44 87.7986 70.84C87.1144 71.24 86.594 71.8 86.2376 72.52C85.8813 73.24 85.703 74.1 85.703 75.1C85.703 76.1133 85.8813 76.9733 86.2376 77.68C86.594 78.3867 87.1001 78.9267 87.7559 79.3C88.4259 79.66 89.21 79.84 90.1081 79.84C91.4196 79.84 92.4103 79.5133 93.0804 78.86C93.7647 78.1933 94.171 77.3333 94.2993 76.28H90.6213V74.26H97.2074V82H94.5345L94.3206 80.22C94.0071 80.66 93.6364 81.0333 93.2087 81.34C92.7952 81.6333 92.3106 81.8533 91.7546 82C91.1986 82.16 90.5571 82.24 89.8301 82.24ZM98.9036 82L104.378 68H107.649L113.102 82H110.044L106.003 71.08L101.94 82H98.9036ZM101.32 78.82L102.09 76.72H109.702L110.45 78.82H101.32ZM120.927 82.24C119.43 82.24 118.141 81.94 117.057 81.34C115.988 80.7267 115.161 79.88 114.576 78.8C114.006 77.7067 113.721 76.4467 113.721 75.02C113.721 73.5933 114.006 72.3333 114.576 71.24C115.161 70.1467 115.988 69.2933 117.057 68.68C118.141 68.0667 119.43 67.76 120.927 67.76C122.738 67.76 124.22 68.18 125.375 69.02C126.53 69.86 127.25 71.0467 127.535 72.58H124.391C124.206 71.8333 123.814 71.2533 123.215 70.84C122.632 70.4133 121.862 70.2 120.906 70.2C120.023 70.2 119.259 70.4 118.618 70.8C117.991 71.1867 117.506 71.74 117.164 72.46C116.822 73.1667 116.651 74.02 116.651 75.02C116.651 76.0067 116.822 76.86 117.164 77.58C117.506 78.3 117.991 78.8533 118.618 79.24C119.259 79.6267 120.023 79.82 120.906 79.82C121.862 79.82 122.632 79.6267 123.215 79.24C123.8 78.84 124.185 78.2867 124.37 77.58H127.535C127.25 79.0333 126.53 80.1733 125.375 81C124.22 81.8267 122.738 82.24 120.927 82.24ZM133.339 82V70.18H128.956V68H140.567V70.18H136.205V82H133.339ZM148.408 82.24C147.31 82.24 146.313 82.0333 145.415 81.62C144.517 81.2067 143.803 80.5867 143.276 79.76C142.748 78.9333 142.485 77.88 142.485 76.6V68H145.372V76.62C145.372 77.3133 145.493 77.9 145.735 78.38C145.977 78.8467 146.327 79.1933 146.783 79.42C147.254 79.6467 147.81 79.76 148.451 79.76C149.107 79.76 149.663 79.6467 150.119 79.42C150.59 79.1933 150.946 78.8467 151.188 78.38C151.43 77.9 151.552 77.3133 151.552 76.62V68H154.439V76.6C154.439 77.88 154.167 78.9333 153.626 79.76C153.084 80.5867 152.349 81.2067 151.424 81.62C150.51 82.0333 149.505 82.24 148.408 82.24ZM157.252 82V68H162.833C164.045 68 165.043 68.1933 165.826 68.58C166.611 68.9667 167.195 69.4867 167.58 70.14C167.965 70.78 168.157 71.4933 168.157 72.28C168.157 73.0267 167.972 73.7267 167.601 74.38C167.231 75.02 166.647 75.54 165.848 75.94C165.064 76.3267 164.052 76.52 162.811 76.52H160.138V82H157.252ZM165.014 82L161.935 75.84H165.057L168.307 82H165.014ZM160.138 74.56H162.662C163.532 74.56 164.174 74.36 164.586 73.96C165 73.56 165.206 73.0333 165.206 72.38C165.206 71.7267 165 71.2133 164.586 70.84C164.187 70.4533 163.546 70.26 162.662 70.26H160.138V74.56Z" fill="black"/>
</svg>
