<svg width="161" height="68" viewBox="0 0 161 68" fill="none" xmlns="http://www.w3.org/2000/svg">
<path fill-rule="evenodd" clip-rule="evenodd" d="M107.153 13.8052L107.204 5.22889L100.762 5.1937L100.971 9.79318L88.2937 0L60.5977 23.4265L67.1236 23.3953L88.5021 6.49449L111.529 23.459L118.272 23.3804L107.153 13.8052Z" fill="#B79B6F"/>
<path fill-rule="evenodd" clip-rule="evenodd" d="M119.781 5.83667L109.292 12.9863L113.221 16.0156L119.864 11.7803L135.071 23.2735L141.973 23.4319L119.781 5.83667Z" fill="#B79B6F"/>
<path fill-rule="evenodd" clip-rule="evenodd" d="M74.1782 25.2997L42.5421 25.3024L60.3661 11.9371L66.2574 15.7027L69.9891 12.9861L60.4514 6.30482L31.589 29.0518H74.2662L74.1782 25.2997Z" fill="#D5D5D5"/>
<path d="M74.2267 26.5492H70.2568V56.0425H74.2267V26.5492Z" fill="#D5D5D5"/>
<path d="M28.2002 61.7222C63.2812 52.5016 99.6991 55.1492 131.146 61.3026C126.26 63.9475 123.759 65.3173 123.759 65.3173C123.759 65.3173 71.834 53.4302 28.2002 61.7222Z" fill="#D5D5D5"/>
<path d="M33.3311 62.0956C58.4873 57.1712 83.8303 60.2804 105.471 65.5675C101.882 67.1701 100.043 67.9999 100.043 67.9999C100.043 67.9999 64.4205 58.1079 33.3311 62.0956Z" fill="#B79B6F"/>
<path d="M53.7695 52.6338V38.3678H57.0295V40.7454H57.1781C57.4382 39.9219 57.884 39.2872 58.5156 38.8414C59.1533 38.3894 59.8809 38.1634 60.6982 38.1634C60.884 38.1634 61.0914 38.1727 61.3205 38.1913C61.5558 38.2037 61.7508 38.2253 61.9056 38.2563V41.3491C61.7632 41.2996 61.5372 41.2563 61.2276 41.2191C60.9242 41.1758 60.6301 41.1541 60.3453 41.1541C59.7323 41.1541 59.1812 41.2872 58.6921 41.5535C58.2091 41.8135 57.8283 42.1757 57.5497 42.6401C57.271 43.1045 57.1317 43.6401 57.1317 44.2469V52.6338H53.7695Z" fill="black"/>
<path d="M44.5818 52.9125C43.1515 52.9125 41.9162 52.6153 40.876 52.0209C39.842 51.4203 39.0463 50.572 38.4891 49.4761C37.9318 48.3739 37.6532 47.0767 37.6532 45.5845C37.6532 44.117 37.9318 42.8291 38.4891 41.7208C39.0525 40.6062 39.8389 39.7394 40.8482 39.1202C41.8574 38.4948 43.0432 38.1821 44.4054 38.1821C45.2846 38.1821 46.1143 38.3245 46.8945 38.6094C47.6809 38.888 48.3743 39.3214 48.975 39.9097C49.5818 40.4979 50.0585 41.2471 50.4053 42.1573C50.752 43.0613 50.9254 44.1387 50.9254 45.3894V46.4204H39.2321V44.1542H47.7025C47.6963 43.5102 47.557 42.9375 47.2846 42.4359C47.0121 41.9282 46.6313 41.5288 46.1422 41.2378C45.6592 40.9468 45.0958 40.8013 44.4518 40.8013C43.7645 40.8013 43.1608 40.9685 42.6407 41.3028C42.1206 41.631 41.715 42.0644 41.424 42.6031C41.1392 43.1356 40.9937 43.7207 40.9875 44.3585V46.3368C40.9875 47.1665 41.1392 47.8786 41.4426 48.473C41.746 49.0612 42.1701 49.5132 42.715 49.829C43.2599 50.1386 43.8976 50.2934 44.6283 50.2934C45.1174 50.2934 45.5602 50.2253 45.9564 50.0891C46.3527 49.9466 46.6964 49.7392 46.9874 49.4668C47.2784 49.1943 47.4982 48.8569 47.6468 48.4544L50.7861 48.8073C50.5879 49.637 50.2102 50.3615 49.653 50.9807C49.1019 51.5937 48.396 52.0704 47.5353 52.411C46.6747 52.7454 45.6902 52.9125 44.5818 52.9125Z" fill="black"/>
<path d="M36.424 38.3676L31.3436 52.6336H27.6285L22.548 38.3676H26.1331L29.4117 48.965H29.5603L32.8482 38.3676H36.424Z" fill="black"/>
<path d="M16.8616 52.6338V38.3678H20.2238V52.6338H16.8616ZM18.552 36.3431C18.0195 36.3431 17.5613 36.1666 17.1774 35.8137C16.7935 35.4545 16.6016 35.0242 16.6016 34.5227C16.6016 34.0149 16.7935 33.5846 17.1774 33.2317C17.5613 32.8725 18.0195 32.693 18.552 32.693C19.0907 32.693 19.5489 32.8725 19.9266 33.2317C20.3105 33.5846 20.5024 34.0149 20.5024 34.5227C20.5024 35.0242 20.3105 35.4545 19.9266 35.8137C19.5489 36.1666 19.0907 36.3431 18.552 36.3431Z" fill="black"/>
<path d="M0 52.634V33.6126H7.13301C8.59428 33.6126 9.82027 33.8665 10.811 34.3742C11.8079 34.882 12.5602 35.594 13.0679 36.5104C13.5818 37.4206 13.8388 38.4825 13.8388 39.6961C13.8388 40.9159 13.5787 41.9747 13.0586 42.8725C12.5447 43.7642 11.7862 44.4546 10.7831 44.9437C9.78002 45.4267 8.54784 45.6682 7.08657 45.6682H2.00616V42.8075H6.62218C7.47666 42.8075 8.17633 42.6899 8.72122 42.4546C9.2661 42.2131 9.66857 41.8633 9.92863 41.4051C10.1949 40.9407 10.328 40.371 10.328 39.6961C10.328 39.0212 10.1949 38.4454 9.92863 37.9686C9.66238 37.4856 9.25681 37.1203 8.71193 36.8726C8.16705 36.6188 7.46427 36.4918 6.6036 36.4918H3.44576V52.634H0ZM9.82646 44.0149L14.5354 52.634H10.6902L6.06491 44.0149H9.82646Z" fill="black"/>
<path d="M154.195 51.9932C152.765 51.9932 151.529 51.696 150.489 51.1016C149.455 50.501 148.66 49.6527 148.102 48.5567C147.545 47.4546 147.266 46.1574 147.266 44.6651C147.266 43.1977 147.545 41.9098 148.102 40.8014C148.666 39.6869 149.452 38.82 150.461 38.2009C151.471 37.5755 152.656 37.2628 154.019 37.2628C154.898 37.2628 155.728 37.4052 156.508 37.69C157.294 37.9687 157.988 38.4021 158.588 38.9903C159.195 39.5785 159.672 40.3278 160.019 41.238C160.365 42.142 160.539 43.2193 160.539 44.4701V45.501H148.845V43.2348H157.316C157.31 42.5909 157.17 42.0181 156.898 41.5166C156.625 41.0089 156.245 40.6095 155.755 40.3185C155.272 40.0274 154.709 39.8819 154.065 39.8819C153.378 39.8819 152.774 40.0491 152.254 40.3835C151.734 40.7116 151.328 41.1451 151.037 41.6838C150.752 42.2163 150.607 42.8014 150.601 43.4392V45.4175C150.601 46.2472 150.752 46.9592 151.056 47.5536C151.359 48.1419 151.783 48.5939 152.328 48.9097C152.873 49.2192 153.511 49.374 154.242 49.374C154.731 49.374 155.173 49.3059 155.57 49.1697C155.966 49.0273 156.31 48.8199 156.601 48.5474C156.892 48.275 157.111 47.9375 157.26 47.5351L160.399 47.888C160.201 48.7177 159.823 49.4422 159.266 50.0613C158.715 50.6743 158.009 51.1511 157.149 51.4917C156.288 51.826 155.303 51.9932 154.195 51.9932Z" fill="black"/>
<path d="M144.799 41.2193L141.734 41.5537C141.648 41.2441 141.496 40.9531 141.279 40.6806C141.069 40.4082 140.784 40.1884 140.425 40.0212C140.066 39.854 139.626 39.7704 139.106 39.7704C138.406 39.7704 137.818 39.9221 137.341 40.2255C136.871 40.5289 136.638 40.9221 136.645 41.4051C136.638 41.8199 136.79 42.1574 137.1 42.4175C137.416 42.6775 137.936 42.8911 138.66 43.0583L141.094 43.5784C142.443 43.8694 143.446 44.3307 144.103 44.9623C144.765 45.5939 145.1 46.4205 145.106 47.4421C145.1 48.34 144.836 49.1325 144.316 49.8198C143.802 50.5009 143.087 51.0334 142.171 51.4173C141.255 51.8012 140.202 51.9931 139.013 51.9931C137.267 51.9931 135.861 51.6278 134.796 50.8972C133.731 50.1604 133.097 49.1356 132.892 47.8229L136.171 47.5072C136.32 48.1511 136.635 48.6372 137.118 48.9653C137.601 49.2935 138.23 49.4576 139.004 49.4576C139.803 49.4576 140.443 49.2935 140.926 48.9653C141.415 48.6372 141.66 48.2316 141.66 47.7486C141.66 47.34 141.502 47.0025 141.186 46.7363C140.877 46.47 140.394 46.2657 139.738 46.1233L137.304 45.6125C135.936 45.3276 134.923 44.8478 134.267 44.1728C133.611 43.4917 133.286 42.6311 133.292 41.5908C133.286 40.7116 133.524 39.95 134.007 39.3061C134.496 38.6559 135.174 38.1544 136.041 37.8014C136.914 37.4423 137.92 37.2627 139.06 37.2627C140.731 37.2627 142.047 37.6188 143.007 38.3308C143.973 39.0429 144.57 40.0057 144.799 41.2193Z" fill="black"/>
<path d="M126.705 45.7144V37.4482H130.067V51.7143H126.807V49.1787H126.659C126.337 49.9774 125.807 50.6307 125.07 51.1384C124.34 51.6461 123.439 51.9 122.368 51.9C121.433 51.9 120.606 51.6926 119.888 51.2777C119.176 50.8567 118.619 50.2468 118.216 49.448C117.814 48.6431 117.612 47.671 117.612 46.5317V37.4482H120.975V46.0116C120.975 46.9156 121.222 47.6338 121.718 48.1663C122.213 48.6988 122.863 48.9651 123.668 48.9651C124.163 48.9651 124.643 48.8443 125.108 48.6029C125.572 48.3614 125.953 48.0022 126.25 47.5255C126.553 47.0425 126.705 46.4388 126.705 45.7144Z" fill="black"/>
<path d="M107.923 51.9932C106.529 51.9932 105.322 51.6867 104.3 51.0737C103.279 50.4607 102.486 49.6031 101.923 48.501C101.365 47.3988 101.087 46.1109 101.087 44.6373C101.087 43.1636 101.365 41.8726 101.923 40.7643C102.486 39.6559 103.279 38.7953 104.3 38.1823C105.322 37.5693 106.529 37.2628 107.923 37.2628C109.316 37.2628 110.523 37.5693 111.545 38.1823C112.566 38.7953 113.356 39.6559 113.913 40.7643C114.477 41.8726 114.758 43.1636 114.758 44.6373C114.758 46.1109 114.477 47.3988 113.913 48.501C113.356 49.6031 112.566 50.4607 111.545 51.0737C110.523 51.6867 109.316 51.9932 107.923 51.9932ZM107.941 49.2997C108.696 49.2997 109.328 49.0923 109.836 48.6775C110.344 48.2564 110.721 47.693 110.969 46.9871C111.223 46.2812 111.35 45.4949 111.35 44.628C111.35 43.7549 111.223 42.9655 110.969 42.2596C110.721 41.5475 110.344 40.981 109.836 40.5599C109.328 40.1389 108.696 39.9284 107.941 39.9284C107.167 39.9284 106.523 40.1389 106.009 40.5599C105.502 40.981 105.121 41.5475 104.867 42.2596C104.619 42.9655 104.495 43.7549 104.495 44.628C104.495 45.4949 104.619 46.2812 104.867 46.9871C105.121 47.693 105.502 48.2564 106.009 48.6775C106.523 49.0923 107.167 49.2997 107.941 49.2997Z" fill="black"/>
<path d="M82.3865 51.7143V32.693H85.8323V40.7455H94.6464V32.693H98.1014V51.7143H94.6464V43.634H85.8323V51.7143H82.3865Z" fill="black"/>
</svg>
