<svg width="208" height="88" viewBox="0 0 208 88" fill="none" xmlns="http://www.w3.org/2000/svg">
<path fill-rule="evenodd" clip-rule="evenodd" d="M138.669 17.8656L138.735 6.76683L130.399 6.72129L130.668 12.6736L114.263 0L78.4209 30.3167L86.8661 30.2764L114.532 8.40468L144.331 30.3588L153.059 30.2572L138.669 17.8656Z" fill="#B79B6F"/>
<path fill-rule="evenodd" clip-rule="evenodd" d="M155.011 7.55371L141.437 16.8062L146.522 20.7265L155.117 15.2454L174.797 30.1192L183.729 30.3241L155.011 7.55371Z" fill="#B79B6F"/>
<path fill-rule="evenodd" clip-rule="evenodd" d="M95.9956 32.7408L55.0547 32.7443L78.121 15.448L85.745 20.3213L90.5744 16.8056L78.2314 8.15918L40.8801 37.5966H96.1094L95.9956 32.7408Z" fill="#787878"/>
<path d="M96.0584 34.3574H90.9209V72.5253H96.0584V34.3574Z" fill="#787878"/>
<path d="M36.4951 79.8746C81.8941 67.942 129.023 71.3684 169.719 79.3316C163.396 82.7545 160.16 84.5272 160.16 84.5272C160.16 84.5272 92.9624 69.1437 36.4951 79.8746Z" fill="#787878"/>
<path d="M43.1348 80.3587C75.6899 73.986 108.487 78.0097 136.493 84.8518C131.847 86.9258 129.468 87.9996 129.468 87.9996C129.468 87.9996 83.3682 75.1982 43.1348 80.3587Z" fill="#B79B6F"/>
<path d="M69.584 68.1151V49.6531H73.8028V52.7301H73.9951C74.3317 51.6644 74.9086 50.843 75.7259 50.2661C76.5513 49.6811 77.4928 49.3887 78.5505 49.3887C78.7909 49.3887 79.0593 49.4007 79.3558 49.4247C79.6603 49.4408 79.9127 49.4688 80.113 49.5089V53.5114C79.9287 53.4473 79.6363 53.3912 79.2356 53.3431C78.843 53.287 78.4624 53.259 78.0938 53.259C77.3005 53.259 76.5873 53.4312 75.9543 53.7758C75.3293 54.1123 74.8365 54.5811 74.4759 55.1821C74.1153 55.7831 73.935 56.4762 73.935 57.2615V68.1151H69.584Z" fill="white"/>
<path d="M57.6941 68.476C55.8431 68.476 54.2445 68.0914 52.8983 67.3222C51.5601 66.5449 50.5305 65.4471 49.8093 64.0288C49.0881 62.6025 48.7275 60.9238 48.7275 58.9926C48.7275 57.0936 49.0881 55.4269 49.8093 53.9925C50.5385 52.5502 51.5561 51.4284 52.8622 50.6271C54.1684 49.8177 55.7028 49.4131 57.4657 49.4131C58.6035 49.4131 59.6773 49.5974 60.6869 49.966C61.7046 50.3266 62.602 50.8875 63.3793 51.6487C64.1646 52.41 64.7816 53.3795 65.2303 54.5574C65.679 55.7273 65.9034 57.1216 65.9034 58.7402V60.0744H50.7709V57.1416H61.7326C61.7246 56.3083 61.5443 55.5671 61.1917 54.918C60.8392 54.261 60.3464 53.7441 59.7133 53.3675C59.0883 52.9909 58.3591 52.8026 57.5258 52.8026C56.6364 52.8026 55.8551 53.0189 55.182 53.4516C54.5089 53.8763 53.9841 54.4372 53.6074 55.1344C53.2388 55.8235 53.0505 56.5807 53.0425 57.4061V59.9662C53.0425 61.04 53.2388 61.9615 53.6315 62.7307C54.0241 63.4919 54.573 64.0769 55.2782 64.4856C55.9833 64.8862 56.8086 65.0865 57.7542 65.0865C58.3872 65.0865 58.9601 64.9984 59.473 64.8221C59.9858 64.6378 60.4305 64.3694 60.8071 64.0168C61.1837 63.6642 61.4682 63.2275 61.6605 62.7067L65.7231 63.1634C65.4667 64.2372 64.9779 65.1747 64.2567 65.976C63.5435 66.7693 62.6301 67.3863 61.5163 67.827C60.4025 68.2597 59.1284 68.476 57.6941 68.476Z" fill="white"/>
<path d="M47.1368 49.6523L40.5621 68.1143H35.7543L29.1797 49.6523H33.8192L38.0621 63.3666H38.2544L42.5093 49.6523H47.1368Z" fill="white"/>
<path d="M21.821 68.1145V49.6525H26.172V68.1145H21.821ZM24.0085 47.0323C23.3194 47.0323 22.7264 46.8039 22.2296 46.3472C21.7328 45.8824 21.4844 45.3255 21.4844 44.6764C21.4844 44.0194 21.7328 43.4625 22.2296 43.0057C22.7264 42.541 23.3194 42.3086 24.0085 42.3086C24.7057 42.3086 25.2986 42.541 25.7874 43.0057C26.2842 43.4625 26.5326 44.0194 26.5326 44.6764C26.5326 45.3255 26.2842 45.8824 25.7874 46.3472C25.2986 46.8039 24.7057 47.0323 24.0085 47.0323Z" fill="white"/>
<path d="M0 68.116V43.5H9.23096C11.122 43.5 12.7086 43.8285 13.9907 44.4856C15.2808 45.1427 16.2543 46.0642 16.9114 47.2501C17.5765 48.428 17.909 49.8022 17.909 51.3728C17.909 52.9513 17.5725 54.3216 16.8994 55.4835C16.2343 56.6373 15.2527 57.5308 13.9546 58.1638C12.6565 58.7888 11.0619 59.1013 9.17086 59.1013H2.59621V55.3993H8.56989C9.67568 55.3993 10.5811 55.2471 11.2863 54.9426C11.9914 54.6301 12.5123 54.1773 12.8488 53.5844C13.1934 52.9834 13.3657 52.2462 13.3657 51.3728C13.3657 50.4994 13.1934 49.7542 12.8488 49.1372C12.5043 48.5121 11.9794 48.0394 11.2743 47.7189C10.5691 47.3903 9.65965 47.2261 8.54585 47.2261H4.45923V68.116H0ZM12.7166 56.9619L18.8105 68.116H13.8344L7.84872 56.9619H12.7166Z" fill="white"/>
<path d="M199.546 67.2856C197.695 67.2856 196.097 66.901 194.751 66.1317C193.413 65.3545 192.383 64.2567 191.662 62.8384C190.941 61.4121 190.58 59.7333 190.58 57.8022C190.58 55.9031 190.941 54.2364 191.662 52.8021C192.391 51.3597 193.409 50.2379 194.715 49.4366C196.021 48.6273 197.555 48.2227 199.318 48.2227C200.456 48.2227 201.53 48.407 202.539 48.7756C203.557 49.1361 204.454 49.697 205.232 50.4583C206.017 51.2195 206.634 52.1891 207.083 53.367C207.531 54.5369 207.756 55.9312 207.756 57.5498V58.884H192.623V55.9512H203.585C203.577 55.1179 203.397 54.3766 203.044 53.7276C202.692 53.0705 202.199 52.5537 201.566 52.1771C200.941 51.8005 200.212 51.6122 199.378 51.6122C198.489 51.6122 197.708 51.8285 197.034 52.2612C196.361 52.6859 195.836 53.2468 195.46 53.9439C195.091 54.6331 194.903 55.3903 194.895 56.2156V58.7758C194.895 59.8495 195.091 60.771 195.484 61.5403C195.877 62.3015 196.425 62.8865 197.131 63.2951C197.836 63.6958 198.661 63.8961 199.607 63.8961C200.24 63.8961 200.813 63.808 201.325 63.6317C201.838 63.4474 202.283 63.1789 202.66 62.8264C203.036 62.4738 203.321 62.0371 203.513 61.5162L207.575 61.973C207.319 63.0467 206.83 63.9842 206.109 64.7856C205.396 65.5788 204.482 66.1958 203.369 66.6366C202.255 67.0693 200.981 67.2856 199.546 67.2856Z" fill="white"/>
<path d="M187.388 53.343L183.422 53.7757C183.31 53.375 183.114 52.9984 182.833 52.6458C182.561 52.2933 182.192 52.0088 181.727 51.7925C181.263 51.5761 180.694 51.4679 180.021 51.4679C179.115 51.4679 178.354 51.6642 177.737 52.0569C177.128 52.4495 176.827 52.9583 176.835 53.5834C176.827 54.1202 177.024 54.5569 177.424 54.8935C177.833 55.23 178.506 55.5065 179.444 55.7228L182.593 56.3959C184.34 56.7725 185.638 57.3695 186.487 58.1868C187.344 59.0042 187.777 60.0739 187.785 61.396C187.777 62.5579 187.437 63.5836 186.763 64.473C186.098 65.3545 185.173 66.0436 183.987 66.5404C182.801 67.0372 181.439 67.2856 179.9 67.2856C177.641 67.2856 175.822 66.8128 174.443 65.8673C173.065 64.9138 172.244 63.5876 171.979 61.8888L176.222 61.4802C176.415 62.3135 176.823 62.9426 177.448 63.3672C178.073 63.7919 178.887 64.0043 179.888 64.0043C180.922 64.0043 181.751 63.7919 182.376 63.3672C183.009 62.9426 183.326 62.4177 183.326 61.7927C183.326 61.2638 183.122 60.8271 182.713 60.4826C182.312 60.138 181.687 59.8736 180.838 59.6893L177.689 59.0282C175.918 58.6596 174.608 58.0386 173.758 57.1652C172.909 56.2837 172.488 55.1699 172.496 53.8238C172.488 52.6859 172.797 51.7003 173.422 50.8669C174.055 50.0256 174.932 49.3765 176.054 48.9198C177.184 48.455 178.486 48.2227 179.96 48.2227C182.124 48.2227 183.827 48.6834 185.069 49.6049C186.319 50.5264 187.092 51.7724 187.388 53.343Z" fill="white"/>
<path d="M163.971 59.1603V48.4629H168.322V66.9249H164.103V63.6435H163.911C163.494 64.6772 162.809 65.5226 161.856 66.1797C160.91 66.8367 159.744 67.1653 158.358 67.1653C157.148 67.1653 156.078 66.8968 155.149 66.36C154.227 65.8151 153.506 65.0258 152.985 63.9921C152.464 62.9504 152.204 61.6924 152.204 60.218V48.4629H156.555V59.5449C156.555 60.7148 156.876 61.6443 157.517 62.3334C158.158 63.0225 158.999 63.3671 160.041 63.3671C160.682 63.3671 161.303 63.2108 161.904 62.8983C162.505 62.5858 162.997 62.1211 163.382 61.5041C163.775 60.8791 163.971 60.0978 163.971 59.1603Z" fill="white"/>
<path d="M139.665 67.2856C137.862 67.2856 136.299 66.889 134.977 66.0957C133.655 65.3024 132.629 64.1926 131.9 62.7663C131.179 61.34 130.818 59.6732 130.818 57.7662C130.818 55.8591 131.179 54.1883 131.9 52.754C132.629 51.3197 133.655 50.2059 134.977 49.4126C136.299 48.6193 137.862 48.2227 139.665 48.2227C141.468 48.2227 143.03 48.6193 144.352 49.4126C145.674 50.2059 146.696 51.3197 147.417 52.754C148.146 54.1883 148.511 55.8591 148.511 57.7662C148.511 59.6732 148.146 61.34 147.417 62.7663C146.696 64.1926 145.674 65.3024 144.352 66.0957C143.03 66.889 141.468 67.2856 139.665 67.2856ZM139.689 63.8C140.666 63.8 141.484 63.5315 142.141 62.9946C142.798 62.4498 143.287 61.7206 143.607 60.8071C143.936 59.8936 144.1 58.876 144.1 57.7541C144.1 56.6243 143.936 55.6026 143.607 54.6892C143.287 53.7677 142.798 53.0345 142.141 52.4896C141.484 51.9447 140.666 51.6723 139.689 51.6723C138.687 51.6723 137.854 51.9447 137.189 52.4896C136.532 53.0345 136.039 53.7677 135.71 54.6892C135.39 55.6026 135.23 56.6243 135.23 57.7541C135.23 58.876 135.39 59.8936 135.71 60.8071C136.039 61.7206 136.532 62.4498 137.189 62.9946C137.854 63.5315 138.687 63.8 139.689 63.8Z" fill="white"/>
<path d="M106.617 66.9246V42.3086H111.076V52.7295H122.483V42.3086H126.954V66.9246H122.483V56.4676H111.076V66.9246H106.617Z" fill="white"/>
</svg>
